<svg width="57" height="56" viewBox="0 0 57 56" fill="none" xmlns="http://www.w3.org/2000/svg">
<path d="M37.7502 11.9534C34.1818 10.0414 31.4127 6.95546 29.8358 3.2751L28.4858 0.124756L27.1636 3.20947C25.5754 6.91583 22.795 10.0327 19.2039 11.9633C13.1172 15.2338 9.0144 21.6212 9.11902 28.941C9.18709 33.6616 11.0261 37.976 14.0069 41.2749C15.8245 43.2847 16.8644 45.8594 16.8644 48.5477V52.4943C16.8644 54.28 18.3379 55.7264 20.1543 55.7264H36.8163C38.6339 55.7264 40.1061 54.28 40.1061 52.4943V48.5774C40.1061 45.9187 41.0968 43.3491 42.9056 41.3704C45.9811 38.0021 47.8529 33.549 47.8529 28.6675C47.8527 21.4552 43.7702 15.1805 37.7502 11.9534Z" fill="#075258"/>
<path d="M15.7558 3.71503C16.7995 3.71503 17.6465 4.5472 17.6465 5.57254C17.6465 6.59789 16.7995 7.43006 15.7558 7.43006H5.67218C4.62726 7.43006 3.78149 6.59789 3.78149 5.57254C3.78149 4.5472 4.62726 3.71503 5.67218 3.71503H1.89081C0.845888 3.71503 0.00012207 2.88286 0.00012207 1.85751C0.00012207 0.832167 0.845888 0 1.89081 0H10.714C11.7577 0 12.6047 0.832167 12.6047 1.85751C12.6047 2.88286 11.7577 3.71503 10.714 3.71503H15.7558Z" fill="#075258"/>
<path d="M36.6476 18.4632C37.6913 18.4632 38.5383 19.2953 38.5383 20.3207C38.5383 21.346 37.6913 22.1782 36.6476 22.1782C35.6027 22.1782 34.757 21.346 34.757 20.3207C34.757 19.2953 35.6027 18.4632 36.6476 18.4632ZM39.1019 26.318C39.2279 26.983 39.2946 27.669 39.2946 28.3699C39.2946 34.5257 34.215 39.515 27.9505 39.515C21.6848 39.515 16.6064 34.5257 16.6064 28.3699C16.6064 22.2141 21.6848 17.2248 27.9505 17.2248C28.6639 17.2248 29.3609 17.2904 30.0391 17.4143C26.6774 18.1697 24.1691 21.1231 24.1691 24.6549C24.1691 28.7587 27.5547 32.0849 31.7319 32.0849C35.3255 32.0849 38.3329 29.6206 39.1019 26.318ZM32.7402 49.4217C32.7402 48.7379 32.1758 48.1834 31.4798 48.1834H16.323C16.325 48.2672 16.3291 48.3508 16.3291 48.4348V50.6601H31.4798C32.1758 50.6601 32.7402 50.1056 32.7402 49.4217Z" fill="#F6CF1A"/>
<path d="M52.7288 6.21356C52.7288 4.16163 51.0348 2.49854 48.9474 2.49854C46.8589 2.49854 45.166 4.16163 45.166 6.21356C45.166 8.2655 46.8589 9.92859 48.9474 9.92859C51.0348 9.92859 52.7288 8.2655 52.7288 6.21356Z" fill="#005257"/>
<path d="M56.8255 41.2492C56.8255 40.1548 55.9379 39.2678 54.8441 39.2678C53.7498 39.2678 52.8628 40.1548 52.8628 41.2492C52.8628 42.3435 53.7498 43.2305 54.8441 43.2305C55.9379 43.2305 56.8255 42.3435 56.8255 41.2492Z" fill="#005257"/>
<path d="M7.34368 47.8009C7.34368 46.7066 6.4561 45.8196 5.36233 45.8196C4.26803 45.8196 3.38098 46.7066 3.38098 47.8009C3.38098 48.8953 4.26803 49.7823 5.36233 49.7823C6.4561 49.7823 7.34368 48.8953 7.34368 47.8009Z" fill="#005257"/>
</svg>
