<svg width="40" height="64" viewBox="0 0 40 64" fill="none" xmlns="http://www.w3.org/2000/svg">
<path fill-rule="evenodd" clip-rule="evenodd" d="M33.2521 3.4361e-06H6.66378C6.05689 -0.000642903 5.45278 0.0898974 4.86831 0.269098L4.75377 0.305208C4.65278 0.338072 4.55275 0.373659 4.45367 0.411966C1.86929 1.41047 0.0165617 4.11335 0.0165617 7.28848V53.5325C0.0165617 53.5325 0.01198 53.5891 0.00568017 53.6917V55.8834C0.00568017 56.0057 0.00844829 56.1282 0.0139845 56.2511C0.0162754 56.2992 0.0188526 56.3475 0.0220025 56.3952L0.00653924 56.372C0.00653924 56.372 -0.231424 59.3236 2.17713 61.4666C2.73094 61.9593 3.42507 62.4086 4.29445 62.7706C5.05623 63.0421 5.85276 63.178 6.65375 63.1732H25.7887L25.8197 63.1691H33.2521C36.9232 63.1691 39.899 59.906 39.899 55.8803V7.28848C39.899 3.26336 36.9232 3.4361e-06 33.2521 3.4361e-06ZM27.3047 9.59415L27.26 9.61016L27.2205 9.62335L27.183 9.63497L27.1478 9.64533C26.9668 9.69632 26.7808 9.72206 26.594 9.72195H13.3001C12.7826 9.72157 12.2816 9.52259 11.8839 9.15953C11.4861 8.79647 11.2169 8.29222 11.1227 7.73425C11.0286 7.17627 11.1155 6.59976 11.3684 6.10471C11.6214 5.60967 12.0243 5.2273 12.5075 5.02394L12.5473 5.00761L12.5894 4.9916C12.8215 4.90404 13.0652 4.85947 13.3107 4.85972H26.6048C27.1311 4.8597 27.6402 5.06504 28.0409 5.439C28.4417 5.81296 28.708 6.33111 28.7922 6.90071C28.8764 7.47031 28.773 8.05418 28.5004 8.54779C28.2279 9.04141 27.804 9.41255 27.3047 9.59478V9.59415Z" fill="#005257"/>
</svg>
