<svg width="45" height="54" viewBox="0 0 45 54" fill="none" xmlns="http://www.w3.org/2000/svg">
<path d="M41.559 50.0151C40.5854 50.6114 39.4743 50.9509 38.3311 51.0014C37.1879 51.0518 36.0508 50.8116 35.0276 50.3034L34.3566 49.9707C34.0682 49.8422 33.7557 49.7758 33.4395 49.7758C33.1234 49.7758 32.8108 49.8422 32.5225 49.9707L24.8504 52.9428C23.2561 53.5724 21.4791 53.5724 19.8848 52.9428L12.2127 49.9042C11.9243 49.7757 11.6118 49.7092 11.2956 49.7092C10.9795 49.7092 10.6669 49.7757 10.3786 49.9042L9.70753 50.2369C8.69024 50.7406 7.56055 50.9797 6.42451 50.9318C5.28848 50.8838 4.18336 50.5504 3.21291 49.9628C2.24245 49.3752 1.43849 48.5528 0.876487 47.5726C0.314489 46.5924 0.0128886 45.4867 0 44.3593V11.0898C0 8.14855 1.17829 5.32781 3.27566 3.24806C5.37302 1.16831 8.21766 -7.85959e-05 11.1838 -7.85959e-05H33.5514C36.5175 -7.85959e-05 39.3621 1.16831 41.4595 3.24806C43.5569 5.32781 44.7352 8.14855 44.7352 11.0898V44.3593C44.7351 45.4922 44.4433 46.6063 43.8875 47.596C43.3316 48.5858 42.5301 49.4185 41.559 50.0151ZM26.8411 15.7031H13.4205C12.8273 15.7031 12.2584 15.9368 11.8389 16.3528C11.4194 16.7687 11.1838 17.3329 11.1838 17.9211C11.1838 18.5093 11.4194 19.0735 11.8389 19.4894C12.2584 19.9054 12.8273 20.1391 13.4205 20.1391H26.8411C27.4343 20.1391 28.0032 19.9054 28.4227 19.4894C28.8422 19.0735 29.0779 18.5093 29.0779 17.9211C29.0779 17.3329 28.8422 16.7687 28.4227 16.3528C28.0032 15.9368 27.4343 15.7031 26.8411 15.7031ZM31.3146 29.0109H13.4205C12.8273 29.0109 12.2584 29.2446 11.8389 29.6606C11.4194 30.0765 11.1838 30.6407 11.1838 31.2289C11.1838 31.8172 11.4194 32.3813 11.8389 32.7973C12.2584 33.2132 12.8273 33.4469 13.4205 33.4469H31.3146C31.9078 33.4469 32.4768 33.2132 32.8962 32.7973C33.3157 32.3813 33.5514 31.8172 33.5514 31.2289C33.5514 30.6407 33.3157 30.0765 32.8962 29.6606C32.4768 29.2446 31.9078 29.0109 31.3146 29.0109Z" fill="#005257"/>
</svg>
