<?xml version="1.0" encoding="UTF-8"?>
<svg xmlns="http://www.w3.org/2000/svg" width="132" height="122" version="1.1" viewBox="0 0 132 122">
  <defs>
    <style>
      .cls-1 {
        fill: #fff;
      }
    </style>
  </defs>
  <!-- Generator: Adobe Illustrator 28.7.1, SVG Export Plug-In . SVG Version: 1.2.0 Build 142)  -->
  <g>
    <g id="Layer_1">
      <path class="cls-1" d="M109.686,18.065c-2.718-2.87-7.015-3.632-10.964-3.439-5.41.262-10.627,1.991-15.764,3.704-9.322,3.109-18.645,6.217-27.968,9.327-1.723.574-3.446,1.15-5.169,1.724-7.955,2.653-16.966,5.328-23.91,10.178-4.009,2.8-7.222,7.542-6.315,12.348,1.331,7.054,9.589,10.255,15.369,12.796,4.796,2.108,9.744,4.359,14.04,7.451l23.809-21.965c1.342-1.239,3.438-1.144,4.664.21,1.209,1.337,1.116,3.398-.208,4.62l-23.3,21.494c.09.099.191.186.28.286,7.545,8.52,6.877,25.409,18.86,29.916,5.073,1.908,11.181-.312,14.421-4.657,1.836-2.462,2.832-5.433,3.799-8.348,6.336-19.101,12.672-38.203,19.008-57.305,1.015-3.057,2.038-6.162,2.201-9.379.163-3.218-.638-6.62-2.853-8.96Z"/>
    </g>
  </g>
</svg>