<?xml version="1.0" encoding="UTF-8"?>
<svg xmlns="http://www.w3.org/2000/svg" width="132" height="122" version="1.1" viewBox="0 0 132 122">
  <defs>
    <style>
      .cls-1 {
        fill: #0d666e;
      }

      .cls-2 {
        fill: #fff;
      }
    </style>
  </defs>
  <!-- Generator: Adobe Illustrator 28.7.1, SVG Export Plug-In . SVG Version: 1.2.0 Build 142)  -->
  <g>
    <g id="Layer_1">
      <path class="cls-2" d="M105.574,86.386c-1.296-1.414-3.38-1.979-5.223-1.428l-16.013,4.808c.016.338.011.688-.008,1.044-.275,4.625-3.639,8.488-8.187,9.395l-1.023.206c-5.879,1.169-11.903,1.84-17.907,1.99l-4.902.124c-.778.023-1.523-.261-2.08-.798-.566-.536-.891-1.26-.911-2.04-.021-.783.266-1.52.802-2.084.536-.567,1.261-.889,2.039-.909l4.903-.124c5.681-.143,11.372-.778,16.916-1.88l1.023-.206c1.945-.387,3.383-2.041,3.5-4.019.071-1.171-.325-2.298-1.107-3.169-.806-.876-1.881-1.386-3.044-1.441l-25.725-1.192c-2.815-.131-5.636.695-7.939,2.318l-15.625,11.719,15.916,20.161,21.542,2.334c3.737.41,7.451-.622,10.45-2.909l31.952-24.364c1.16-.881,1.868-2.17,1.995-3.626.124-1.455-.353-2.844-1.344-3.913Z"/>
      <path class="cls-2" d="M77.707,26.522c2.536-5.249,5.335-11.597,5.335-14.048,0-3.101-3.886-4.725-6.251-1.427-3.078,4.302-4.401-1.949-7.963-1.94-3.511.007-5.354,5.786-8.097,1.912-2.491-3.535-6.735-1.395-6.735,1.358,0,3.349,2.676,9.396,5.172,14.311-8.61,6.744-19.133,19.314-19.133,30.723,0,16.585,12.768,24.439,28.517,24.439s28.517-7.854,28.517-24.439c0-11.514-10.709-24.199-19.363-30.89Z"/>
      <path class="cls-1" d="M68.098,55.193c1-.481,1.777-1.152,2.332-2.013.556-.861.833-1.883.833-3.068,0-1.11-.273-2.101-.819-2.971-.546-.87-1.31-1.55-2.29-2.041-.981-.49-2.128-.736-3.442-.736h-8.023v19.601h4.387v-8.052h.447l5.826,8.052h5.192l-6.25-8.206c.654-.119,1.26-.304,1.807-.568ZM61.075,47.781h3.137c.852,0,1.513.231,1.985.694.472.463.708,1.046.708,1.749,0,.741-.241,1.329-.723,1.763-.481.435-1.147.652-1.998.652h-3.109v-4.858Z"/>
      <path class="cls-1" d="M82.368,56.651c-.5-.324-1.027-.574-1.583-.75-.555-.176-1.078-.329-1.568-.458s-.897-.278-1.222-.444-.485-.389-.485-.667c0-.24.12-.435.36-.583.24-.148.602-.222,1.083-.222.5,0,1.014.107,1.541.319.527.213,1.004.569,1.43,1.069l2.415-2.471c-.592-.777-1.379-1.365-2.359-1.763-.981-.397-2.036-.597-3.165-.597s-2.101.185-2.915.555c-.814.371-1.443.875-1.888,1.513s-.667,1.393-.667,2.263c0,.833.157,1.509.473,2.026.314.519.722.926,1.222,1.222.499.296,1.026.532,1.582.708.556.176,1.087.333,1.597.472.509.139.92.287,1.235.444.314.158.472.403.472.736,0,.278-.135.491-.402.639-.269.148-.635.222-1.097.222-.74,0-1.411-.134-2.013-.403-.602-.268-1.134-.643-1.597-1.124l-2.443,2.443c.481.5,1.046.939,1.694,1.319.647.379,1.36.676,2.138.888.777.213,1.563.319,2.359.319,1.685,0,3.021-.393,4.012-1.18.99-.786,1.485-1.837,1.485-3.151,0-.851-.157-1.541-.472-2.068-.315-.527-.722-.953-1.222-1.277Z"/>
    </g>
  </g>
</svg>