<?xml version="1.0" encoding="UTF-8"?>
<svg xmlns="http://www.w3.org/2000/svg" width="132" height="122" version="1.1" viewBox="0 0 132 122">
  <defs>
    <style>
      .cls-1 {
        fill: #f2cc33;
      }
    </style>
  </defs>
  <!-- Generator: Adobe Illustrator 28.7.1, SVG Export Plug-In . SVG Version: 1.2.0 Build 142)  -->
  <g>
    <g id="Layer_1">
      <path class="cls-1" d="M89.786,17.815s-24.118.161-42.769-.161c-18.651-.322-17.525,14.953-17.525,14.953l-1.286,65.385c0,18.598,14.471,13.077,15.114,12.595.643-.483,0,0,2.894-3.538,2.894-3.537,10.29.804,10.29.804,0,0,13.828,8.2,23.635.161,9.808-8.039,13.667.161,19.133-.482,5.466-.643,7.557-9.968,7.557-9.968l.965-63.349c-1.608-18.329-18.008-16.4-18.008-16.4ZM52.967,44.184h22.831c2.93,0,5.306,2.376,5.306,5.306s-2.376,5.306-5.306,5.306h-22.831c-2.93,0-5.306-2.376-5.306-5.306s2.376-5.306,5.306-5.306ZM88.661,76.34h-43.733v-5.125c0-3.03,2.456-5.486,5.486-5.486h32.761c3.03,0,5.486,2.456,5.486,5.486v5.125Z"/>
    </g>
  </g>
</svg>