<?xml version="1.0" encoding="UTF-8"?>
<svg xmlns="http://www.w3.org/2000/svg" width="340.096" height="130.299" version="1.1" viewBox="0 0 340.096 130.299">
  <defs>
    <style>
      .cls-1 {
        fill: #fff;
      }
    </style>
  </defs>
  <!-- Generator: Adobe Illustrator 28.7.1, SVG Export Plug-In . SVG Version: 1.2.0 Build 142)  -->
  <g>
    <g id="Layer_1">
      <path class="cls-1" d="M25.804,12.001h288.489c7.037,0,12.756,5.719,12.756,12.756v80.785c0,7.037-5.719,12.756-12.756,12.756H25.804c-7.037,0-12.756-5.719-12.756-12.756V24.757c0-7.037,5.719-12.756,12.756-12.756Z"/>
      <path d="M65.419,44.28c-.527-4.241,1.578-8.74,3.92-11.505,2.66-3.131,7.292-5.529,10.978-5.686.475,4.423-1.264,8.765-3.819,11.952-2.657,3.131-6.922,5.554-11.08,5.239Z"/>
      <path d="M95.847,81.791c-.052.262-1.526,5.397-5.184,10.58-3.082,4.583-6.266,9.058-11.372,9.135-4.95.105-6.608-2.922-12.294-2.922s-7.502,2.845-12.242,3.026c-4.87.185-8.552-4.894-11.739-9.422-6.343-9.267-11.268-26.114-4.66-37.566,3.187-5.631,9.055-9.24,15.296-9.345,4.842-.077,9.369,3.292,12.346,3.292,2.922,0,8.5-4.056,14.239-3.449,2.398.08,9.24.974,13.662,7.397-.342.21-8.133,4.793-8.053,14.214.105,11.268,9.871,15.006,10.001,15.058Z"/>
      <path d="M124.643,62.505h-6.268l-10.127,31.493h5.225l2.791-9.254h10.235l2.943,9.254h5.372l-10.17-31.493ZM117.16,80.863l2.624-8.208c.681-2.601,1.171-4.583,1.493-5.926h.105c.769,3.113,1.301,5.072,1.578,5.926l2.666,8.208h-8.465Z"/>
      <path d="M158.119,73.999c-1.792-2.109-4.009-3.175-6.695-3.175-3.412,0-5.971,1.363-7.654,4.071h-.087l-.277-3.605h-4.433c.127,2.559.192,5.033.192,7.464v24.456h5.053v-11.92c1.321,2.154,3.475,3.22,6.48,3.22,2.773,0,5.117-.981,6.995-2.986,2.112-2.239,3.155-5.287,3.155-9.146,0-3.475-.896-6.248-2.728-8.38ZM154.11,88.347c-1.066,1.45-2.536,2.197-4.436,2.197-1.62,0-2.941-.574-3.944-1.705-1.001-1.131-1.513-2.539-1.513-4.179v-3.797c0-.404.085-.916.235-1.533.297-1.346.981-2.411,1.982-3.243,1.023-.809,2.154-1.236,3.39-1.236,1.835,0,3.305.746,4.394,2.239,1.001,1.428,1.493,3.24,1.493,5.457,0,2.409-.534,4.329-1.6,5.799Z"/>
      <path d="M184.215,73.999c-1.79-2.109-4.007-3.175-6.695-3.175-3.41,0-5.969,1.363-7.654,4.071h-.085l-.277-3.605h-4.436c.13,2.559.192,5.033.192,7.464v24.456h5.053v-11.92c1.323,2.154,3.477,3.22,6.483,3.22,2.771,0,5.117-.981,6.992-2.986,2.112-2.239,3.158-5.287,3.158-9.146,0-3.475-.896-6.248-2.731-8.38ZM180.209,88.347c-1.046,1.45-2.539,2.197-4.436,2.197-1.62,0-2.943-.574-3.944-1.705-1.004-1.131-1.515-2.539-1.515-4.179v-3.797c0-.404.087-.916.235-1.533.32-1.346.981-2.411,1.985-3.243,1.023-.809,2.152-1.236,3.39-1.236,1.832,0,3.305.746,4.391,2.239,1.004,1.428,1.493,3.24,1.493,5.457,0,2.409-.512,4.329-1.598,5.799Z"/>
      <path d="M214.216,79.693c1.301,1.47,1.94,3.305,1.94,5.479,0,2.686-.939,4.86-2.793,6.545-2.047,1.832-4.903,2.751-8.57,2.751-3.393,0-6.099-.661-8.146-1.962l1.173-4.201c2.217,1.301,4.648,1.962,7.292,1.962,1.897,0,3.39-.427,4.433-1.278,1.066-.854,1.6-2.005,1.6-3.432,0-1.281-.449-2.347-1.301-3.22-.874-.874-2.324-1.685-4.351-2.431-5.564-2.067-8.315-5.075-8.315-9.019,0-2.579.981-4.691,2.921-6.353,1.942-1.643,4.521-2.474,7.741-2.474,2.856,0,5.245.492,7.142,1.493l-1.278,4.094c-1.792-.959-3.797-1.45-6.056-1.45-1.77,0-3.178.447-4.179,1.301-.831.789-1.258,1.727-1.258,2.858,0,1.236.492,2.282,1.45,3.07.831.746,2.366,1.555,4.583,2.429,2.709,1.088,4.691,2.366,5.971,3.839Z"/>
      <path d="M227.307,71.29h5.564v3.797h-5.564v11.024c0,2.793.981,4.199,2.943,4.199.894,0,1.64-.085,2.239-.235l.147,3.839c-1.001.362-2.302.554-3.922.554-2.005,0-3.54-.619-4.671-1.835-1.128-1.216-1.685-3.263-1.685-6.118v-11.451h-3.303v-3.774h3.303v-4.156l4.948-1.493v5.649Z"/>
      <path d="M255.003,74.171c-2.025-2.219-4.713-3.328-8.038-3.328-3.455,0-6.203,1.131-8.25,3.37-2.027,2.237-3.05,5.117-3.05,8.635,0,3.368.981,6.161,2.963,8.358,1.985,2.197,4.648,3.305,7.976,3.305,3.455,0,6.226-1.151,8.315-3.455,1.982-2.239,2.986-5.095,2.986-8.592,0-3.39-.961-6.161-2.901-8.293ZM251.294,87.985c-1.108,1.835-2.624,2.751-4.541,2.751-1.962,0-3.497-.896-4.586-2.708-.894-1.47-1.343-3.26-1.343-5.352,0-2.152.427-3.964,1.343-5.457,1.046-1.812,2.601-2.708,4.628-2.708,1.962,0,3.475.896,4.541,2.708.896,1.493,1.343,3.263,1.343,5.352s-.469,3.879-1.385,5.414Z"/>
      <path d="M274.299,70.908l.02,4.818c-.489-.085-1.023-.127-1.598-.127-1.77,0-3.155.662-4.116,2.005-.831,1.171-1.258,2.686-1.258,4.476v11.92h-5.052v-15.564c0-2.624-.042-5.01-.15-7.144h4.393l.192,4.351h.15c.532-1.493,1.363-2.708,2.514-3.605,1.131-.809,2.347-1.213,3.647-1.213.469,0,.896.042,1.258.085Z"/>
      <path d="M296.879,81.567c0-2.836-.681-5.202-2.024-7.164-1.665-2.429-4.159-3.645-7.422-3.645-3.325,0-5.969,1.216-7.931,3.645-1.877,2.282-2.813,5.14-2.813,8.552,0,3.475,1.001,6.268,3.006,8.335,2.005,2.069,4.775,3.113,8.293,3.113,2.923,0,5.459-.469,7.614-1.408l-.789-3.495c-1.835.704-3.882,1.066-6.121,1.066-2.024,0-3.667-.534-4.945-1.578-1.408-1.173-2.132-2.901-2.197-5.14h15.138c.127-.617.192-1.385.192-2.282ZM281.569,80.247c.15-1.515.662-2.836,1.493-3.924,1.023-1.363,2.366-2.047,4.009-2.047,1.792,0,3.135.704,4.009,2.112.682,1.086,1.024,2.386.981,3.879l-10.492-.02Z"/>
      <path d="M119.245,35.918c5.229,0,8.325,3.218,8.325,8.764s-3.084,8.825-8.325,8.825h-6.204v-17.589h6.204ZM115.771,51.142h3.218c3.73,0,5.79-2.279,5.79-6.436s-2.072-6.436-5.79-6.436h-3.218v12.872Z"/>
      <path d="M129.277,47.096c0-4.12,2.426-6.643,6.082-6.643s6.082,2.523,6.082,6.643-2.413,6.655-6.082,6.655-6.082-2.523-6.082-6.655ZM138.76,47.096c0-2.84-1.341-4.473-3.401-4.473s-3.401,1.633-3.401,4.473,1.341,4.486,3.401,4.486c2.072,0,3.401-1.633,3.401-4.486Z"/>
      <path d="M156.836,53.507h-2.743l-2.694-9.605h-.061l-2.669,9.605h-2.718l-3.523-12.823h2.633l2.34,10.092h.049l2.669-10.092h2.535l2.682,10.092h.061l2.34-10.092h2.608l-3.51,12.823Z"/>
      <path d="M161.956,40.684h2.511v2.145h.061c.695-1.463,2.06-2.365,4.035-2.365,2.828,0,4.449,1.804,4.449,4.742v8.301h-2.645v-7.789c0-1.926-.902-2.986-2.73-2.986-1.853,0-3.047,1.316-3.047,3.303v7.472h-2.633v-12.823Z"/>
      <path d="M175.644,35.918h2.633v17.589h-2.633v-17.589Z"/>
      <path d="M180.41,47.096c0-4.12,2.426-6.643,6.082-6.643s6.082,2.523,6.082,6.643-2.413,6.655-6.082,6.655-6.082-2.523-6.082-6.655ZM189.893,47.096c0-2.84-1.341-4.473-3.401-4.473s-3.401,1.633-3.401,4.473,1.341,4.486,3.401,4.486c2.072,0,3.401-1.633,3.401-4.486Z"/>
      <path d="M194.098,49.863c0-2.243,1.719-3.62,4.766-3.791l3.51-.207v-.987c0-1.426-.963-2.279-2.572-2.279-1.524,0-2.474.731-2.706,1.877h-2.487c.146-2.316,2.121-4.022,5.29-4.022,3.108,0,5.095,1.646,5.095,4.217v8.837h-2.523v-2.109h-.061c-.744,1.426-2.365,2.328-4.047,2.328-2.511,0-4.266-1.56-4.266-3.864ZM202.374,48.705v-1.012l-3.157.195c-1.572.11-2.462.804-2.462,1.902,0,1.121.926,1.853,2.34,1.853,1.841,0,3.279-1.268,3.279-2.938Z"/>
      <path d="M206.969,47.096c0-4.047,2.145-6.619,5.363-6.619,1.841,0,3.303.926,4.022,2.34h.049v-6.899h2.645v17.589h-2.56v-2.182h-.049c-.756,1.463-2.218,2.401-4.083,2.401-3.242,0-5.388-2.584-5.388-6.631ZM209.663,47.096c0,2.706,1.304,4.4,3.389,4.4,2.023,0,3.376-1.719,3.376-4.4,0-2.657-1.353-4.4-3.376-4.4-2.084,0-3.389,1.706-3.389,4.4Z"/>
      <path d="M226.228,47.096c0-4.12,2.426-6.643,6.082-6.643s6.082,2.523,6.082,6.643-2.413,6.655-6.082,6.655-6.082-2.523-6.082-6.655ZM235.711,47.096c0-2.84-1.341-4.473-3.401-4.473s-3.401,1.633-3.401,4.473,1.341,4.486,3.401,4.486c2.072,0,3.401-1.633,3.401-4.486Z"/>
      <path d="M240.428,40.684h2.511v2.145h.061c.695-1.463,2.06-2.365,4.035-2.365,2.828,0,4.449,1.804,4.449,4.742v8.301h-2.645v-7.789c0-1.926-.902-2.986-2.73-2.986-1.853,0-3.047,1.316-3.047,3.303v7.472h-2.633v-12.823Z"/>
      <path d="M262.49,37.649v3.035h2.438v2.084h-2.438v7.07c0,1.109.488,1.609,1.56,1.609.268,0,.695-.024.865-.061v2.084c-.293.073-.878.122-1.463.122-2.596,0-3.608-.987-3.608-3.462v-7.362h-1.865v-2.084h1.865v-3.035h2.645Z"/>
      <path d="M267.183,35.918h2.608v6.911h.061c.707-1.499,2.109-2.365,4.059-2.365,2.816,0,4.498,1.877,4.498,4.778v8.264h-2.645v-7.752c0-1.889-.951-3.023-2.803-3.023-1.95,0-3.145,1.341-3.145,3.364v7.411h-2.633v-17.589Z"/>
      <path d="M291.939,49.741c-.366,2.34-2.584,4.01-5.522,4.01-3.766,0-6.046-2.548-6.046-6.594,0-4.022,2.316-6.704,5.936-6.704,3.559,0,5.778,2.511,5.778,6.399v.902h-9.056v.158c0,2.231,1.341,3.705,3.449,3.705,1.499,0,2.608-.756,2.962-1.877h2.499ZM283.041,45.913h6.411c-.061-1.962-1.304-3.34-3.145-3.34s-3.133,1.402-3.267,3.34Z"/>
    </g>
  </g>
</svg>