<svg width="327" height="32" viewBox="0 0 327 32" fill="none" xmlns="http://www.w3.org/2000/svg">
<g clip-path="url(#clip0_625_98)">
<path d="M3.58203 28.861C2.44302 28.1023 1.55879 27.0014 0.944327 25.5732C0.329862 24.145 0.0151367 22.4491 0.0151367 20.5002C0.0151367 18.5216 0.329862 16.8257 0.959314 15.3975C1.58877 13.9693 2.47299 12.8833 3.59702 12.1097C4.73602 11.3361 6.06986 10.9642 7.61351 10.9642C8.49774 10.9642 9.30704 11.0981 10.0414 11.3807C10.7758 11.6634 11.4352 12.0651 12.0047 12.5858C12.5742 13.1065 13.0238 13.7462 13.3835 14.4751H13.4884V4.71594H17.8046V29.6346H13.4884V26.5253H13.3835C13.0538 27.2543 12.6042 27.8642 12.0347 28.3849C11.4652 28.8907 10.8207 29.2924 10.0864 29.5751C9.352 29.8577 8.52772 30.0065 7.64349 30.0065C6.08485 30.0065 4.73602 29.6197 3.59702 28.861H3.58203ZM11.3003 25.6625C11.9897 25.1715 12.5142 24.4872 12.9039 23.6095C13.2936 22.7169 13.4734 21.6755 13.4734 20.4854C13.4734 19.2655 13.2786 18.239 12.8889 17.3463C12.4993 16.4686 11.9597 15.7843 11.2853 15.2933C10.6109 14.8024 9.81659 14.5644 8.93236 14.5644C8.04814 14.5644 7.19388 14.8024 6.51947 15.2785C5.84506 15.7545 5.32051 16.4389 4.96083 17.3017C4.60114 18.1794 4.40631 19.2208 4.40631 20.4407C4.40631 21.6755 4.58615 22.7169 4.96083 23.5946C5.32051 24.4872 5.84506 25.1567 6.51947 25.6476C7.19388 26.1237 8.00317 26.3617 8.93236 26.3617C9.86156 26.3617 10.6109 26.1237 11.3003 25.6327V25.6625Z" fill="#005257"/>
<path d="M23.4545 28.861C22.1207 28.1023 21.0866 27.0014 20.3522 25.5732C19.6178 24.1451 19.2432 22.4491 19.2432 20.4854V20.4556C19.2432 18.4919 19.6178 16.8108 20.3522 15.3826C21.1015 13.9545 22.1356 12.8684 23.4695 12.0949C24.8033 11.3213 26.362 10.9493 28.1454 10.9493C29.9289 10.9493 31.5175 11.3361 32.8513 12.0949C34.1851 12.8536 35.2342 13.9545 35.9686 15.3678C36.7029 16.781 37.0776 18.477 37.0776 20.4407V20.4705C37.0776 22.4491 36.7029 24.1599 35.9686 25.5732C35.2342 27.0014 34.2001 28.0874 32.8663 28.8461C31.5325 29.6048 29.9588 29.9916 28.1454 29.9916C26.332 29.9916 24.7584 29.6048 23.4245 28.8461L23.4545 28.861ZM30.5733 25.8261C31.2477 25.3501 31.7722 24.6658 32.1319 23.7583C32.4916 22.8508 32.6864 21.7648 32.6864 20.4854V20.4556C32.6864 19.1911 32.5066 18.1051 32.1319 17.2125C31.7573 16.3199 31.2327 15.6355 30.5583 15.1595C29.8839 14.6834 29.0746 14.4454 28.1604 14.4454C27.2462 14.4454 26.4819 14.6834 25.8074 15.1595C25.133 15.6355 24.6085 16.3199 24.2188 17.2125C23.8442 18.1051 23.6493 19.1911 23.6493 20.4556V20.4854C23.6493 21.7648 23.8442 22.8508 24.2188 23.7583C24.5935 24.6658 25.118 25.3501 25.8074 25.8261C26.4819 26.3022 27.2911 26.5402 28.2054 26.5402C29.1196 26.5402 29.9139 26.3022 30.5883 25.8261H30.5733Z" fill="#005257"/>
<path d="M36.9427 11.3361H41.289L44.4062 25.3947H44.4962L48.093 11.3361H52.2294L55.8563 25.3947H55.9462L59.0635 11.3361H63.3497L58.3741 29.6495H53.818L50.1762 16.2603H50.0863L46.4595 29.6495H41.9484L36.9427 11.3361Z" fill="#005257"/>
<path d="M64.0991 11.3361H68.4153V14.2073H68.5202C68.9998 13.2106 69.7042 12.4221 70.6484 11.8419C71.5926 11.2617 72.7615 10.9642 74.1553 10.9642C76.1786 10.9642 77.7522 11.5741 78.8612 12.794C79.9703 14.0139 80.5248 15.6801 80.5248 17.8075V29.6643H76.1936V18.6852C76.1936 17.3761 75.8788 16.3793 75.2644 15.6652C74.6499 14.9512 73.7207 14.609 72.4918 14.609C71.6675 14.609 70.9481 14.8024 70.3337 15.1743C69.7192 15.5462 69.2396 16.0669 68.9099 16.7215C68.5802 17.391 68.4003 18.1645 68.4003 19.0423V29.6643H64.0841V11.3361H64.0991Z" fill="#005257"/>
<path d="M82.6829 4.71594H87.0141V29.6346H82.6829V4.71594Z" fill="#005257"/>
<path d="M92.7091 28.861C91.3753 28.1023 90.3412 27.0014 89.6068 25.5732C88.8725 24.1451 88.4978 22.4491 88.4978 20.4854V20.4556C88.4978 18.4919 88.8725 16.8108 89.6068 15.3826C90.3562 13.9545 91.3903 12.8684 92.7241 12.0949C94.058 11.3213 95.6166 10.9493 97.4 10.9493C99.1835 10.9493 100.772 11.3361 102.106 12.0949C103.44 12.8536 104.489 13.9545 105.223 15.3678C105.958 16.781 106.332 18.477 106.332 20.4407V20.4705C106.332 22.4491 105.958 24.1599 105.223 25.5732C104.489 27.0014 103.455 28.0874 102.121 28.8461C100.787 29.6048 99.2135 29.9916 97.4 29.9916C95.5866 29.9916 94.013 29.6048 92.6792 28.8461L92.7091 28.861ZM99.8279 25.8261C100.502 25.3501 101.027 24.6658 101.387 23.7583C101.746 22.8508 101.941 21.7648 101.941 20.4854V20.4556C101.941 19.1911 101.761 18.1051 101.387 17.2125C101.012 16.3199 100.487 15.6355 99.8129 15.1595C99.1385 14.6834 98.3292 14.4454 97.415 14.4454C96.5008 14.4454 95.7365 14.6834 95.0621 15.1595C94.3877 15.6355 93.8631 16.3199 93.4735 17.2125C93.0988 18.1051 92.904 19.1911 92.904 20.4556V20.4854C92.904 21.7648 93.0988 22.8508 93.4735 23.7583C93.8481 24.6658 94.3727 25.3501 95.0621 25.8261C95.7365 26.3022 96.5458 26.5402 97.46 26.5402C98.3742 26.5402 99.1685 26.3022 99.8429 25.8261H99.8279Z" fill="#005257"/>
<path d="M109.914 29.2478C108.985 28.7866 108.251 28.132 107.741 27.2989C107.231 26.4658 106.962 25.4988 106.962 24.4277V24.3979C106.962 23.297 107.231 22.3747 107.786 21.5862C108.34 20.8126 109.135 20.1878 110.184 19.7415C111.233 19.2952 112.492 19.0125 113.976 18.9233L121.019 18.4918V21.3482L114.575 21.7499C113.511 21.8242 112.687 22.0771 112.117 22.5086C111.548 22.94 111.263 23.5351 111.263 24.2492C111.263 25.0227 111.548 25.6029 112.132 26.0344C112.702 26.4658 113.466 26.689 114.425 26.689C115.264 26.689 115.999 26.5253 116.658 26.1831C117.318 25.841 117.827 25.3947 118.217 24.8145C118.607 24.2343 118.786 23.5946 118.786 22.8656V17.3761C118.786 16.4537 118.487 15.7247 117.902 15.1892C117.318 14.6536 116.478 14.3858 115.369 14.3858C114.35 14.3858 113.526 14.609 112.911 15.0404C112.297 15.4718 111.907 16.0223 111.757 16.7066L111.728 16.8554H107.726V16.6471C107.831 15.5611 108.206 14.5941 108.835 13.7313C109.479 12.8684 110.364 12.1989 111.488 11.708C112.612 11.2171 113.961 10.9642 115.519 10.9642C117.078 10.9642 118.397 11.2171 119.536 11.7229C120.675 12.2287 121.544 12.9428 122.158 13.8503C122.773 14.7578 123.088 15.8289 123.088 17.0637V29.6494H118.771V26.8377H118.666C118.322 27.4774 117.872 28.0279 117.303 28.489C116.748 28.9651 116.104 29.3221 115.399 29.5751C114.68 29.828 113.916 29.9618 113.106 29.9618C111.892 29.9618 110.813 29.7238 109.884 29.2626L109.914 29.2478Z" fill="#005257"/>
<path d="M127.988 28.861C126.849 28.1023 125.965 27.0014 125.351 25.5732C124.736 24.145 124.422 22.4491 124.422 20.5002C124.422 18.5216 124.736 16.8257 125.366 15.3975C125.995 13.9693 126.879 12.8833 128.003 12.1097C129.142 11.3361 130.476 10.9642 132.02 10.9642C132.904 10.9642 133.713 11.0981 134.448 11.3807C135.182 11.6634 135.842 12.0651 136.411 12.5858C136.981 13.1065 137.43 13.7462 137.79 14.4751H137.895V4.71594H142.211V29.6346H137.895V26.5253H137.79C137.46 27.2543 137.011 27.8642 136.441 28.3849C135.872 28.8907 135.227 29.2924 134.493 29.5751C133.758 29.8577 132.934 30.0065 132.05 30.0065C130.491 30.0065 129.142 29.6197 128.003 28.861H127.988ZM135.707 25.6625C136.396 25.1715 136.921 24.4872 137.31 23.6095C137.7 22.7169 137.88 21.6755 137.88 20.4854C137.88 19.2655 137.685 18.239 137.295 17.3463C136.906 16.4686 136.366 15.7843 135.692 15.2933C135.017 14.8024 134.223 14.5644 133.339 14.5644C132.455 14.5644 131.6 14.8024 130.926 15.2785C130.251 15.7545 129.727 16.4389 129.367 17.3017C129.008 18.1794 128.813 19.2208 128.813 20.4407C128.813 21.6755 128.993 22.7169 129.367 23.5946C129.727 24.4872 130.251 25.1567 130.926 25.6476C131.6 26.1237 132.41 26.3617 133.339 26.3617C134.268 26.3617 135.017 26.1237 135.707 25.6327V25.6625Z" fill="#005257"/>
<path d="M204.647 11.3361H208.963V14.2073H209.068C209.547 13.2106 210.252 12.4221 211.196 11.8419C212.14 11.2617 213.309 10.9642 214.703 10.9642C216.726 10.9642 218.3 11.5741 219.409 12.794C220.518 14.0139 221.072 15.6801 221.072 17.8075V29.6643H216.741V18.6852C216.741 17.3761 216.426 16.3793 215.812 15.6652C215.197 14.9512 214.268 14.609 213.039 14.609C212.215 14.609 211.496 14.8024 210.881 15.1743C210.267 15.5462 209.787 16.0669 209.457 16.7215C209.128 17.391 208.948 18.1645 208.948 19.0423V29.6643H204.632V11.3361H204.647Z" fill="#005257"/>
<path d="M226.558 28.861C225.224 28.1023 224.19 27.0014 223.455 25.5732C222.721 24.1451 222.346 22.4491 222.346 20.4854V20.4556C222.346 18.4919 222.721 16.8108 223.455 15.3826C224.205 13.9545 225.239 12.8684 226.572 12.0949C227.906 11.3213 229.465 10.9493 231.248 10.9493C233.032 10.9493 234.62 11.3361 235.954 12.0949C237.288 12.8536 238.337 13.9545 239.072 15.3678C239.806 16.781 240.181 18.477 240.181 20.4407V20.4705C240.181 22.4491 239.806 24.1599 239.072 25.5732C238.337 27.0014 237.303 28.0874 235.969 28.8461C234.635 29.6048 233.062 29.9916 231.248 29.9916C229.435 29.9916 227.861 29.6048 226.528 28.8461L226.558 28.861ZM233.676 25.8261C234.351 25.3501 234.875 24.6658 235.235 23.7583C235.595 22.8508 235.789 21.7648 235.789 20.4854V20.4556C235.789 19.1911 235.61 18.1051 235.235 17.2125C234.86 16.3199 234.336 15.6355 233.661 15.1595C232.987 14.6834 232.178 14.4454 231.263 14.4454C230.349 14.4454 229.585 14.6834 228.91 15.1595C228.236 15.6355 227.712 16.3199 227.322 17.2125C226.947 18.1051 226.752 19.1911 226.752 20.4556V20.4854C226.752 21.7648 226.947 22.8508 227.322 23.7583C227.697 24.6658 228.221 25.3501 228.91 25.8261C229.585 26.3022 230.394 26.5402 231.308 26.5402C232.223 26.5402 233.017 26.3022 233.691 25.8261H233.676Z" fill="#005257"/>
<path d="M240.046 11.3361H244.392L247.509 25.3947H247.599L251.196 11.3361H255.332L258.959 25.3947H259.049L262.166 11.3361H266.453L261.477 29.6495H256.921L253.279 16.2603H253.189L249.562 29.6495H245.051L240.046 11.3361Z" fill="#005257"/>
<path d="M179.094 1.42816H185.134V18.7448L191.578 12.318H200.121L191.443 20.5002L200.9 29.9619H192.073L185.134 22.583V29.9619H179.094V1.42816Z" fill="#005257"/>
<path d="M170.417 11.5593V29.947H176.606V7.42352C174.823 9.14923 172.724 10.5625 170.417 11.5593Z" fill="#005257"/>
<path d="M154.845 11.8717C150.529 12.6751 147.501 16.3199 147.501 21.0061C147.501 26.3468 151.398 30.3189 156.688 30.3189C158.817 30.3189 160.675 29.6197 161.964 28.4742V29.947H167.869V12.4519C166.085 12.9577 164.047 13.0024 162.099 13.0024C162.009 13.0024 161.904 13.0024 161.814 13.0024V14.2074C161.814 14.2074 159.461 11.0832 154.845 11.8717ZM157.902 24.9335C155.594 24.9335 153.916 23.2971 153.916 21.0061C153.916 18.715 155.594 17.0786 157.947 17.0786C160.3 17.0786 161.904 18.6853 161.904 21.0061C161.904 23.3269 160.3 24.9335 157.917 24.9335H157.902Z" fill="#005257"/>
<path d="M171.825 0C169.637 2.87122 166.16 4.73082 162.249 4.73082C161.724 4.73082 161.229 4.70107 160.72 4.62669L159.041 10.7113C160.09 10.8898 161.155 10.994 162.249 10.994C168.378 10.994 173.819 7.98884 177.131 3.39191L171.825 0Z" fill="#005257"/>
<path d="M288.334 7.42352C286.91 7.51278 285.291 8.28638 284.317 9.28312C283.448 10.1906 282.759 11.5444 283.028 12.8536C284.572 12.8982 286.116 12.0948 287.045 11.0683C287.914 10.1162 288.573 8.79219 288.334 7.42352ZM288.424 12.8536C286.191 12.8536 285.261 14.2073 283.718 14.2073C282.129 14.2073 280.675 12.9428 278.757 12.9428C276.149 12.9428 272.178 15.3529 272.178 21.006C272.178 26.1534 276.884 31.8661 279.536 31.8661C281.155 31.881 281.545 30.8545 283.718 30.8545C285.906 30.8396 286.385 31.881 287.989 31.8661C289.802 31.8661 291.226 29.8726 292.26 28.2957C293.01 27.165 293.309 26.5997 293.879 25.3203C289.608 24.2492 288.753 17.4059 293.879 15.9926C292.905 14.3561 290.087 12.8536 288.409 12.8536H288.424Z" fill="#005257"/>
<path d="M306.213 31.6578L316.419 21.0655L320.016 24.7996L307.877 31.8066C307.412 32.0744 306.843 32.0744 306.393 31.8066L306.213 31.6727V31.6578ZM315.4 19.9944L305.659 30.0957V9.90792L315.4 20.0093V19.9944ZM321.485 15.8289L326.236 18.5662C326.7 18.834 327 19.3398 327 19.8903C327 20.4407 326.715 20.9465 326.236 21.2143L321.35 24.026L317.453 19.9944L321.47 15.8289H321.485ZM306.108 8.22685C306.198 8.13759 306.288 8.0632 306.408 8.00369C306.873 7.73591 307.427 7.72104 307.892 8.00369L320.166 15.0851L316.434 18.953L306.108 8.2566V8.22685Z" fill="#005257"/>
</g>
<defs>
<clipPath id="clip0_625_98">
<rect width="327" height="32" fill="white"/>
</clipPath>
</defs>
</svg>
