<svg width="57" height="41" viewBox="0 0 57 41" fill="none" xmlns="http://www.w3.org/2000/svg">
<path d="M56.8257 10.1475V12.1769H0V10.1475C0 7.45618 1.0691 4.87514 2.97212 2.97212C4.87514 1.0691 7.45618 0 10.1475 0H46.6783C49.3696 0 51.9506 1.0691 53.8536 2.97212C55.7566 4.87514 56.8257 7.45618 56.8257 10.1475Z" fill="#005257"/>
<path d="M0 16.239V30.4454C0 33.1367 1.0691 35.7178 2.97212 37.6208C4.87514 39.5238 7.45618 40.5929 10.1475 40.5929H46.6783C49.3696 40.5929 51.9506 39.5238 53.8536 37.6208C55.7566 35.7178 56.8257 33.1367 56.8257 30.4454V16.239H0ZM46.6783 34.5044H38.5603C38.0221 34.5044 37.5059 34.2906 37.1253 33.91C36.7447 33.5294 36.5308 33.0132 36.5308 32.4749C36.5308 31.9367 36.7447 31.4205 37.1253 31.0399C37.5059 30.6593 38.0221 30.4454 38.5603 30.4454H46.6783C47.2165 30.4454 47.7328 30.6593 48.1134 31.0399C48.494 31.4205 48.7078 31.9367 48.7078 32.4749C48.7078 33.0132 48.494 33.5294 48.1134 33.91C47.7328 34.2906 47.2165 34.5044 46.6783 34.5044Z" fill="#005257"/>
</svg>
