<svg width="56" height="60" viewBox="0 0 56 60" fill="none" xmlns="http://www.w3.org/2000/svg">
<path d="M53.5101 2.43088C52.492 1.33532 51.2057 0.567862 49.7985 0.216245C48.3912 -0.135372 46.9198 -0.0569631 45.5523 0.442511L5.32071 14.8582C3.82967 15.3742 2.52217 16.3652 1.5738 17.6981C0.625437 19.031 0.0816394 20.6419 0.0154494 22.3146C-0.083001 23.9776 0.290782 25.6337 1.0879 27.066C1.88501 28.4984 3.06833 29.6404 4.48304 30.3427L17.9789 37.0534L31.1955 22.936C31.6336 22.468 32.2279 22.205 32.8476 22.205C33.4672 22.205 34.0615 22.468 34.4996 22.936C34.9378 23.404 35.1839 24.0388 35.1839 24.7007C35.1839 25.3625 34.9378 25.9973 34.4996 26.4653L21.283 40.5828L27.5656 54.9985C28.1834 56.4229 29.1678 57.6302 30.4038 58.4796C31.6398 59.329 33.0765 59.7853 34.5462 59.7954H35.0115C36.5775 59.7247 38.0856 59.1439 39.3335 58.1309C40.5813 57.1179 41.5091 55.7212 41.9921 54.1286L55.4182 10.8815C55.8706 9.42309 55.9316 7.85854 55.5944 6.36501C55.2572 4.87148 54.5352 3.50865 53.5101 2.43088Z" fill="#005257"/>
</svg>
