<?xml version="1.0" encoding="UTF-8"?>
<svg xmlns="http://www.w3.org/2000/svg" width="720" height="600" version="1.1" viewBox="0 0 720 600">
  <defs>
    <style>
      .cls-1 {
        fill: #09494f;
      }
    </style>
  </defs>
  <!-- Generator: Adobe Illustrator 28.7.1, SVG Export Plug-In . SVG Version: 1.2.0 Build 142)  -->
  <g>
    <g id="Layer_1">
      <path class="cls-1" d="M141.761,595.17c-3.829,0-6.527-.96-9.037-2.506-4.444-2.739-7.095-7.501-7.095-12.739,0-3.46,0-11.381,18.986-77.351-31.776-27.199-57.003-61.604-73.249-100.007-2.879-6.807.306-14.66,7.111-17.539,6.806-2.877,14.659.303,17.54,7.11,15.683,37.073,40.666,70.018,72.248,95.272,4.232,3.382,6.006,8.983,4.494,14.184-9.37,32.255-14.436,51.367-17.172,62.651,12.313-4.655,35.095-14.547,76.808-35.536,3.188-1.605,6.885-1.867,10.271-.733,24.769,8.31,50.732,12.523,77.169,12.523,27.941,0,55.326-4.701,81.396-13.972,6.958-2.472,14.615,1.16,17.091,8.125,2.476,6.964-1.161,14.616-8.123,17.093-28.955,10.297-59.359,15.517-90.363,15.517-27.44,0-54.433-4.094-80.327-12.178-22.989,11.496-42.296,20.642-57.45,27.213-21.743,9.428-33.046,12.872-40.297,12.872Z"/>
      <path class="cls-1" d="M633.773,294.471l-6.237-77.015c-.901-11.126-10.443-19.546-21.595-19.054l-34.766,1.532c-39.208-100.549-137.085-171.984-251.341-171.984S107.702,99.385,68.494,199.934l-34.766-1.532c-11.152-.492-20.694,7.928-21.595,19.054l-6.237,77.015c-.978,12.08,8.562,22.424,20.681,22.424h33.772c8.726,0,16.001-6.679,16.743-15.374l4.284-50.144c21.65-111.896,120.334-196.662,238.458-196.662s216.808,84.767,238.458,196.662l4.284,50.144c.743,8.695,8.017,15.374,16.743,15.374h33.772c12.12,0,21.66-10.344,20.681-22.424Z"/>
      <path class="cls-1" d="M319.835,116.074c-4.548,0-8.235-3.687-8.235-8.235v-31.151c0-4.548,3.686-8.235,8.235-8.235s8.235,3.687,8.235,8.235v31.151c0,4.548-3.686,8.235-8.235,8.235Z"/>
      <path class="cls-1" d="M319.835,525.17c-4.548,0-8.235-3.687-8.235-8.235v-31.15c0-4.548,3.686-8.235,8.235-8.235s8.235,3.687,8.235,8.235v31.15c0,4.548-3.686,8.235-8.235,8.235Z"/>
      <path class="cls-1" d="M130.861,305.047h-31.149c-4.548,0-8.235-3.687-8.235-8.235s3.686-8.235,8.235-8.235h31.149c4.548,0,8.235,3.687,8.235,8.235s-3.686,8.235-8.235,8.235Z"/>
      <path class="cls-1" d="M539.957,305.047h-31.149c-4.548,0-8.235-3.687-8.235-8.235s3.686-8.235,8.235-8.235h31.149c4.548,0,8.235,3.687,8.235,8.235s-3.686,8.235-8.235,8.235Z"/>
      <path class="cls-1" d="M417.078,149.868c-3.928-2.291-8.969-.966-11.264,2.963l-76.61,131.297c-.552-.047-1.107-.084-1.671-.084-3.772,0-7.279,1.099-10.252,2.97l-68.145-43.523c-3.833-2.446-8.925-1.325-11.373,2.508-2.448,3.833-1.327,8.925,2.506,11.373l68.145,43.523c-.101.8-.171,1.61-.171,2.438,0,10.654,8.636,19.29,19.29,19.29s19.29-8.636,19.29-19.29c0-4.052-1.255-7.808-3.389-10.912l76.606-131.291c2.293-3.928.966-8.971-2.962-11.263Z"/>
      <circle class="cls-1" cx="223.609" cy="120.997" r="9.936"/>
      <circle class="cls-1" cx="431.518" cy="120.997" r="9.936"/>
      <circle class="cls-1" cx="223.609" cy="479.608" r="9.936"/>
      <circle class="cls-1" cx="151.104" cy="198.381" r="9.936"/>
      <circle class="cls-1" cx="497" cy="198.381" r="9.936"/>
      <circle class="cls-1" cx="151.104" cy="401.395" r="9.936"/>
      <path class="cls-1" d="M565.354,149.627c-2.024,0-4.004-1.018-5.145-2.868C510.734,66.668,418.627,16.915,319.835,16.915s-190.897,49.753-240.373,129.844c-1.75,2.841-5.479,3.718-8.316,1.965-2.838-1.754-3.718-5.477-1.964-8.317,25.022-40.506,60.989-74.471,104.013-98.221C217.469,17.748,268.175,4.83,319.835,4.83s102.365,12.918,146.64,37.358c43.024,23.75,78.992,57.714,104.013,98.221,1.754,2.839.874,6.563-1.964,8.317-.989.611-2.086.903-3.171.903Z"/>
      <path class="cls-1" d="M438.042,424.841c4.5-4.5,8.095-8.616,10.785-12.35,2.688-3.73,4.61-7.546,5.764-11.444,1.152-3.895,1.729-8.204,1.729-12.926,0-7.353-1.593-13.774-4.775-19.265-3.185-5.488-7.738-9.715-13.666-12.68-5.928-2.964-12.9-4.445-20.912-4.445-9.332,0-17.537,1.976-24.617,5.928-7.081,3.952-12.982,9.825-17.701,17.619l17.454,15.148c3.401-5.599,6.941-9.633,10.621-12.103,3.677-2.47,7.821-3.705,12.432-3.705s8.369,1.292,11.279,3.869c2.907,2.581,4.363,6.121,4.363,10.621,0,1.976-.357,3.98-1.07,6.01-.715,2.033-1.922,4.174-3.622,6.422-1.703,2.251-3.87,4.804-6.504,7.657l-44.624,46.104v14.49h83.812v-22.064h-43.88l23.133-22.888Z"/>
      <polygon class="cls-1" points="547.706 397.836 522.019 397.836 522.019 421.877 498.58 421.877 533.71 353.543 505.388 353.543 467.352 429.451 467.352 444.106 522.019 444.106 522.019 469.793 547.706 469.793 547.706 444.106 560.549 444.106 560.549 421.877 547.706 421.877 547.706 397.836"/>
      <polygon class="cls-1" points="564.499 478.85 586.729 478.85 626.905 345.475 605.006 345.475 564.499 478.85"/>
      <polygon class="cls-1" points="630.526 353.543 630.526 375.608 682.64 375.608 646.004 469.793 672.844 469.793 710.88 368.197 710.88 353.543 630.526 353.543"/>
      <path class="cls-1" d="M502.106,501.983c-1.226-1.056-2.589-1.912-4.088-2.567-1.5-.654-3.001-1.236-4.5-1.743-1.501-.507-2.874-1.014-4.12-1.521-1.247-.508-2.25-1.109-3.011-1.807s-1.141-1.595-1.141-2.694c0-1.225.507-2.165,1.521-2.82,1.014-.654,2.387-.982,4.119-.982,1.689,0,3.222.339,4.596,1.015,1.372.676,2.735,1.711,4.088,3.105l6.528-6.528c-1.69-1.859-3.824-3.338-6.401-4.437-2.578-1.099-5.451-1.648-8.62-1.648-3.042,0-5.768.518-8.177,1.553-2.408,1.036-4.278,2.546-5.609,4.532s-1.996,4.373-1.996,7.162c0,2.24.38,4.12,1.141,5.641.761,1.521,1.764,2.769,3.011,3.74,1.246.973,2.619,1.796,4.12,2.472,1.499.677,2.988,1.258,4.469,1.743,1.479.486,2.852,1.004,4.119,1.553,1.268.55,2.271,1.204,3.011,1.965s1.109,1.733,1.109,2.915c0,1.354-.581,2.42-1.743,3.201-1.162.782-2.778,1.173-4.849,1.173-2.324,0-4.363-.454-6.116-1.363-1.754-.908-3.35-2.187-4.785-3.834l-6.466,6.465c2.155,2.451,4.553,4.269,7.194,5.451,2.641,1.182,5.82,1.774,9.539,1.774,5.408,0,9.634-1.214,12.677-3.645,3.042-2.43,4.563-5.777,4.563-10.046,0-2.366-.392-4.331-1.173-5.895-.782-1.563-1.785-2.873-3.011-3.93Z"/>
      <path class="cls-1" d="M529.993,511.68c0,1.606-.412,2.874-1.236,3.803-.823.93-1.955,1.395-3.391,1.395-.973,0-1.817-.211-2.535-.634-.719-.422-1.268-1.024-1.648-1.807-.38-.781-.57-1.7-.57-2.757v-17.684h-9.761v17.811c0,2.662.612,5.018,1.838,7.066,1.226,2.051,2.947,3.667,5.166,4.85,2.219,1.182,4.722,1.774,7.511,1.774,2.873,0,5.388-.581,7.543-1.743,2.154-1.161,3.834-2.767,5.038-4.817,1.205-2.049,1.807-4.426,1.807-7.13v-17.811h-9.761v17.684Z"/>
      <path class="cls-1" d="M571.351,495.454c-2.262-1.395-4.828-2.092-7.701-2.092-2.071,0-3.973.423-5.705,1.268-.887.433-1.688.948-2.408,1.541v-2.175h-9.761v43.797h9.634v-15.104c.734.598,1.554,1.115,2.473,1.54,1.731.802,3.654,1.204,5.768,1.204,2.873,0,5.45-.707,7.732-2.123,2.282-1.415,4.066-3.317,5.355-5.705,1.289-2.387,1.934-5.123,1.934-8.208s-.655-5.831-1.965-8.239c-1.311-2.408-3.096-4.311-5.355-5.704ZM567.864,513.138c-.613,1.099-1.438,1.955-2.472,2.566-1.036.613-2.229.919-3.581.919-1.311,0-2.483-.306-3.519-.919-1.035-.611-1.849-1.468-2.439-2.566-.593-1.099-.888-2.346-.888-3.74s.295-2.64.888-3.739c.591-1.099,1.404-1.954,2.439-2.567,1.035-.611,2.229-.919,3.581-.919s2.536.308,3.55.919c1.015.613,1.827,1.469,2.44,2.567.612,1.1.919,2.346.919,3.739s-.307,2.642-.919,3.74Z"/>
      <path class="cls-1" d="M609.062,495.454c-2.262-1.395-4.828-2.092-7.701-2.092-2.071,0-3.973.423-5.705,1.268-.887.433-1.688.948-2.408,1.541v-2.175h-9.761v43.797h9.634v-15.104c.734.598,1.554,1.115,2.473,1.54,1.731.802,3.654,1.204,5.768,1.204,2.873,0,5.45-.707,7.732-2.123,2.282-1.415,4.066-3.317,5.355-5.705,1.289-2.387,1.934-5.123,1.934-8.208s-.655-5.831-1.965-8.239c-1.311-2.408-3.096-4.311-5.355-5.704ZM605.575,513.138c-.613,1.099-1.438,1.955-2.472,2.566-1.036.613-2.229.919-3.581.919-1.311,0-2.483-.306-3.519-.919-1.035-.611-1.849-1.468-2.439-2.566-.593-1.099-.888-2.346-.888-3.74s.295-2.64.888-3.739c.591-1.099,1.404-1.954,2.439-2.567,1.035-.611,2.229-.919,3.581-.919s2.536.308,3.55.919c1.015.613,1.827,1.469,2.44,2.567.612,1.1.919,2.346.919,3.739s-.307,2.642-.919,3.74Z"/>
      <path class="cls-1" d="M644.682,495.391c-2.558-1.395-5.42-2.092-8.589-2.092-3.254,0-6.147.708-8.684,2.123-2.535,1.416-4.531,3.328-5.989,5.736s-2.187,5.113-2.187,8.113c0,3.042.738,5.789,2.219,8.239,1.479,2.451,3.485,4.396,6.021,5.831,2.536,1.438,5.408,2.155,8.62,2.155s6.085-.718,8.62-2.155c2.535-1.436,4.542-3.369,6.021-5.799,1.479-2.43,2.219-5.187,2.219-8.271,0-3-.74-5.715-2.219-8.146-1.479-2.429-3.497-4.341-6.053-5.735ZM642.147,513.169c-.571,1.12-1.385,1.976-2.44,2.567-1.057.592-2.261.887-3.613.887s-2.557-.295-3.612-.887c-1.057-.592-1.881-1.447-2.472-2.567-.593-1.119-.888-2.397-.888-3.835,0-1.352.295-2.576.888-3.676.591-1.099,1.415-1.954,2.472-2.567,1.056-.611,2.26-.919,3.612-.919s2.546.308,3.581.919c1.035.613,1.849,1.458,2.44,2.536.592,1.077.888,2.313.888,3.707,0,1.438-.285,2.716-.855,3.835Z"/>
      <path class="cls-1" d="M675.39,493.362c-3.339,0-5.969.993-7.891,2.979-.011.012-.021.025-.032.036v-2.381h-9.761v30.804h9.761v-16.859c0-1.986.476-3.476,1.426-4.469.951-.992,2.25-1.489,3.898-1.489.802,0,1.521.126,2.155.38s1.141.593,1.521,1.015l5.769-7.353c-.846-.888-1.828-1.553-2.947-1.997-1.12-.443-2.42-.665-3.898-.665Z"/>
      <polygon class="cls-1" points="706.193 493.996 699.221 493.996 699.221 481.256 689.46 481.256 689.46 493.996 682.552 493.996 682.552 502.299 689.46 502.299 689.46 524.8 699.221 524.8 699.221 502.299 706.193 502.299 706.193 493.996"/>
    </g>
  </g>
</svg>