<?xml version="1.0" encoding="UTF-8"?>
<svg xmlns="http://www.w3.org/2000/svg" width="132" height="122" version="1.1" viewBox="0 0 132 122">
  <defs>
    <style>
      .cls-1 {
        fill: #f2cc33;
      }

      .cls-2 {
        fill: #fff;
      }
    </style>
  </defs>
  <!-- Generator: Adobe Illustrator 28.7.1, SVG Export Plug-In . SVG Version: 1.2.0 Build 142)  -->
  <g>
    <g id="Layer_1">
      <path class="cls-2" d="M88.028.323h-44.057c-9.608,0-17.397,7.789-17.397,17.397v86.559c0,9.608,7.789,17.398,17.397,17.398h44.057c9.608,0,17.397-7.789,17.397-17.398V17.72c0-9.608-7.789-17.397-17.397-17.397ZM79.777,20.255h-25.502c-2.176,0-3.957-1.78-3.957-3.956s1.781-3.957,3.957-3.957h25.502c2.177,0,3.958,1.78,3.958,3.957s-1.781,3.957-3.958,3.957Z"/>
      <path class="cls-1" d="M64.773,76.461c1-.48,1.777-1.152,2.332-2.013.556-.86.833-1.883.833-3.067,0-1.11-.273-2.101-.819-2.971s-1.31-1.55-2.29-2.041c-.981-.49-2.129-.735-3.442-.735h-8.023v19.601h4.387v-8.052h.447l5.826,8.052h5.192l-6.25-8.206c.654-.119,1.26-.304,1.808-.568ZM57.75,69.049h3.137c.852,0,1.513.231,1.985.693.472.463.708,1.046.708,1.749,0,.741-.241,1.329-.723,1.764s-1.147.652-1.998.652h-3.109v-4.858Z"/>
      <path class="cls-1" d="M79.044,77.919c-.5-.324-1.027-.574-1.583-.75-.555-.176-1.078-.328-1.568-.458-.49-.129-.897-.277-1.222-.444-.324-.166-.485-.389-.485-.666,0-.24.12-.435.36-.583s.602-.223,1.083-.223c.5,0,1.014.107,1.541.319.527.213,1.004.569,1.43,1.069l2.415-2.471c-.592-.777-1.379-1.365-2.359-1.764-.981-.397-2.036-.597-3.165-.597s-2.101.186-2.915.556-1.443.874-1.888,1.513-.667,1.394-.667,2.263c0,.833.157,1.509.473,2.026.314.519.722.926,1.222,1.222.499.297,1.026.532,1.582.708.556.177,1.087.333,1.597.473.509.139.92.287,1.235.443.314.158.472.403.472.736,0,.277-.135.49-.402.639-.269.148-.635.222-1.097.222-.74,0-1.411-.134-2.013-.402s-1.134-.643-1.597-1.124l-2.443,2.442c.481.5,1.046.939,1.694,1.319.647.379,1.36.676,2.138.888.777.213,1.563.319,2.359.319,1.685,0,3.021-.393,4.012-1.18.99-.786,1.485-1.837,1.485-3.151,0-.851-.157-1.54-.472-2.068-.315-.527-.722-.952-1.222-1.276Z"/>
    </g>
  </g>
</svg>