<?xml version="1.0" encoding="UTF-8"?>
<svg xmlns="http://www.w3.org/2000/svg" version="1.1" viewBox="0 0 119 81.9">
  <defs>
    <style>
      .cls-1 {
        fill: #fff;
      }

      .cls-2 {
        fill: #f5ce1a;
      }
    </style>
  </defs>
  <!-- Generator: Adobe Illustrator 28.7.1, SVG Export Plug-In . SVG Version: 1.2.0 Build 142)  -->
  <g>
    <g id="Layer_1">
      <path class="cls-1" d="M70.3,4.4h13.3v38.4l14.2-14.2h18.8l-19.1,18.1,20.8,20.9h-19.4l-15.2-16.3v16.3h-13.3V4.4h0Z"/>
      <path class="cls-1" d="M51.2,26.9v40.7h13.6V17.7c-3.9,3.8-8.5,6.9-13.6,9.2Z"/>
      <path class="cls-1" d="M17,27.5C7.5,29.3.8,37.4.8,47.8s8.6,20.6,20.2,20.6,8.7-1.5,11.6-4.1v3.3h13V28.9c-3.9,1.1-8.4,1.2-12.7,1.2s-.4,0-.6,0v2.7s-5.2-6.9-15.3-5.2ZM23.7,56.5c-5.1,0-8.8-3.6-8.8-8.7s3.7-8.7,8.9-8.7,8.7,3.6,8.7,8.7-3.5,8.7-8.8,8.7h0Z"/>
      <path class="cls-2" d="M54.3,1.3c-4.8,6.4-12.4,10.5-21,10.5s-2.3,0-3.4-.2l-3.7,13.5c2.3.4,4.6.6,7.1.6,13.5,0,25.4-6.6,32.7-16.8l-11.7-7.5h0Z"/>
      <path class="cls-1" d="M53.7,79.8v-.3c.2-.1.4-.3.5-.4,0-.2,0-.4,0-.7,0-.6,0-1.7,0-3.2s0-1.1,0-2c0-.7,0-1.1,0-1.2,0,0,0-.1,0-.1,0,0-.4-.1-.9-.1v-.5c0,0,.2,0,.3,0h.8c.3,0,.6,0,1,0s.7,0,1,0c.6,0,1,0,1.1,0,.7,0,1.2,0,1.5.2s.6.3.8.6.3.6.3.9,0,.7-.3,1-.4.5-.7.7c-.2.1-.6.2-1.2.4.7,0,1.3.2,1.5.4.3.1.5.4.7.7.2.3.3.7.3,1s0,.8-.3,1.1c-.2.3-.4.6-.7.8-.3.2-.6.4-1,.6s-.8.2-1.4.2h-2c-.3,0-.8,0-1.3,0h0,0ZM56,74.8h.4c.3,0,.5,0,.8,0,.2,0,.4-.1.6-.2s.3-.3.4-.5c0-.2.1-.5.1-.8s0-.5-.2-.7c-.1-.2-.3-.4-.4-.4-.2,0-.5-.1-.8-.1s-.5,0-.7,0c0,.3,0,.6,0,1v.9s0,.9,0,.9h0ZM56,79.1c.1,0,.4,0,.8,0s.9-.2,1.2-.5c.3-.3.5-.8.5-1.4s0-.8-.2-1.1c-.2-.3-.4-.5-.6-.6-.3-.1-.6-.2-1.1-.2s-.3,0-.5,0v3.5s0,0,0,.2h0Z"/>
      <path class="cls-1" d="M67,79.3v.5c-.5,0-.9,0-1.2,0s-.7,0-1,0h0c0,0,0-.9,0-.9-.1,0-.6.4-1.3,1-.2,0-.4,0-.5,0-.4,0-.8-.1-1-.4-.2-.3-.4-.6-.4-1.1s0-.6.2-.8c.1-.2.2-.4.4-.5.1,0,.3-.2.6-.3.6-.2,1.3-.4,2.1-.5,0-.5,0-.8-.3-1.1-.2-.3-.5-.4-1-.4s-.3,0-.5,0c0,0-.2,0-.2.1l-.3.6h-.4c0,0,0-.9,0-.9.3-.2.6-.4.9-.5.3-.2.5-.2.6-.3.2,0,.4,0,.6,0,.4,0,.8,0,1.1.2s.5.3.6.5c.1.2.2.4.3.6s0,.4,0,.8,0,.5,0,1c0,.4,0,.7,0,.9,0,.7,0,1.2,0,1.3,0,0,0,.1,0,.1,0,0,.3,0,.6,0h0ZM64.7,76.8c-.3,0-.7.2-.9.3-.3.1-.5.2-.6.4-.1.2-.2.3-.2.6s0,.5.2.6.3.2.5.2.4,0,.6-.2c.2-.1.3-.2.4-.4v-1.5h0s0,0,0,0Z"/>
      <path class="cls-1" d="M74.6,79.3v.5c-.6,0-1,0-1.4,0s-.8,0-1,0h-.1c0-.2,0-.5,0-1.2v-1s0-.5,0-.5c0-.7,0-1.2,0-1.4s-.2-.4-.3-.5-.4-.2-.7-.2-.5,0-.7.2-.3.3-.4.4c0,0,0,.4,0,1v1c0,.3,0,.7,0,1.1,0,.2,0,.3,0,.4,0,0,0,0,0,0,0,0,.1,0,.3,0,0,0,.2,0,.5,0v.5c-.4,0-1,0-1.6,0s-1.3,0-1.7,0v-.5c.3,0,.5,0,.7,0,0,0,0,0,.1-.1,0,0,0-.2,0-.4v-.5c0-.1,0-.3,0-.6v-.8c0-.4,0-.8,0-1.3,0-.3,0-.4,0-.4,0,0,0,0-.1,0,0,0-.3,0-.7,0v-.5c.7-.1,1.2-.2,1.5-.3.2,0,.5-.2.8-.3h.2v1.1l1.1-.9c.1,0,.2,0,.3-.1s.2,0,.4,0c.4,0,.8,0,1,.1.2,0,.4.2.6.4.2.2.3.4.3.6,0,.2,0,.5,0,.9s0,.8,0,.9c0,0,0,.1,0,.2v.6c0,.7,0,1.1,0,1.3s0,.3.1.3c0,0,.2,0,.4,0,0,0,.2,0,.3,0h0,0Z"/>
      <path class="cls-1" d="M82.4,79.3v.5c-.2,0-.5,0-1.1,0s-.9,0-1.1,0c-.2-.4-.6-.9-1.3-1.6-.6-.7-1-1.1-1.1-1.2,0,0,0,0-.1,0v.6c0,.3,0,.7,0,1.2,0,.2,0,.4,0,.4,0,0,0,0,0,0,0,0,.1,0,.2,0,0,0,.2,0,.6,0v.5c-.5,0-1,0-1.6,0s-1.2,0-1.8,0v-.5c.4,0,.6,0,.6,0,0,0,.1,0,.1,0,0,0,0,0,0-.1,0-.1,0-.5,0-1,0-.7,0-1.4,0-1.9v-2c0-.7,0-1.2,0-1.8,0-.3,0-.4,0-.5,0,0,0,0,0,0,0,0-.1,0-.2,0,0,0-.2,0-.5,0v-.5c.6,0,1-.1,1.2-.2s.6-.2,1.1-.3h.1c0,0,0,1.4,0,1.4,0,.7,0,1.5,0,2.2v2.2c.1,0,.3-.2.4-.4.4-.3.7-.6.9-.8,0,0,.2-.2.5-.5.2-.2.4-.4.5-.6v-.3c.4,0,.7,0,1.1,0,.2,0,.4,0,.8,0v.5h-.6c0,0-.1,0-.2.1-.1,0-.3.2-.6.4-.4.3-.6.5-.6.5s-.1.1-.2.2l-.5.5c.4.4,1,1.1,1.8,2.1.5.5.8.9.9.9,0,0,.2,0,.4,0h0Z"/>
      <path class="cls-1" d="M87,71.2v.5c-.4,0-.7,0-.7,0,0,0-.1,0-.2,0s0,0,0,.1c0,0,0,.2,0,.4,0,.1,0,.3,0,.6,0,1,0,1.5,0,1.6v3.6c0,.4,0,.7,0,.8,0,0,0,.1,0,.1s0,0,.2,0,.3,0,.7,0v.5c-.7,0-1.4,0-2.1,0s-1.2,0-1.7,0v-.5c.4,0,.7,0,.7,0,0,0,.1,0,.2,0,0,0,0,0,0,0,0,0,0-.2,0-.6,0-.5,0-.9,0-1.4v-2.5c0-.8,0-1.3,0-1.6,0-.5,0-.8,0-1,0,0,0,0,0-.1s0,0-.1,0-.3,0-.8,0v-.5c.5,0,1.1,0,1.8,0s1.4,0,2.1,0h0Z"/>
      <path class="cls-1" d="M88,77.8h.5c0,.5,0,.7,0,.9.2.2.4.4.6.5.2.1.5.2.8.2s.7,0,.9-.3c.2-.2.3-.4.3-.7s0-.3,0-.4-.2-.2-.4-.3c-.2,0-.5-.1-.9-.2-.4,0-.8-.2-1-.3-.2-.1-.4-.3-.5-.5-.1-.2-.2-.5-.2-.8,0-.6.2-1,.6-1.4.4-.4,1-.6,1.8-.6s.6,0,.9,0,.5.1.7.3h0c0,.2,0,.3,0,.5s0,.5,0,1h-.5c0,0,0-.1,0-.2,0-.2,0-.4,0-.5-.1-.2-.3-.3-.5-.4-.2,0-.4-.1-.6-.1s-.6,0-.8.2c-.2.2-.3.3-.3.6s0,.4.1.5c0,.1.2.2.4.2.2,0,.5.1.9.2s.8.2.9.2c.2,0,.4.2.5.3s.2.3.3.5c0,.2.1.4.1.6,0,.6-.2,1.1-.7,1.5s-1.1.6-2,.6-.6,0-.8,0c-.3,0-.6-.1-1-.3h0c0-.4,0-.6,0-.8v-1s0,0,0,0h0Z"/>
      <path class="cls-1" d="M96.7,79.3v.5c-.5,0-1,0-1.6,0s-1.2,0-1.9,0v-.5c.4,0,.6,0,.7,0,0,0,.1,0,.1,0s0,0,0-.1c0-.1,0-.5,0-1.2,0-.6,0-1.2,0-1.7v-2c0-.6,0-1.2,0-1.7,0-.3,0-.5,0-.5,0,0,0,0,0,0,0,0-.1,0-.2,0,0,0-.2,0-.5,0v-.4c.5,0,.9-.1,1.2-.2s.7-.2,1.2-.3h.1c0,0,0,1.3,0,1.3,0,.7,0,1.5,0,2.5v1.6c0,.6,0,1,0,1.3,0,.7,0,1.2,0,1.3,0,.2,0,.2,0,.3,0,0,0,0,0,0,0,0,0,0,.2,0,0,0,.2,0,.6,0h0Z"/>
      <path class="cls-1" d="M103,79.3v.5c-.5,0-.9,0-1.2,0s-.7,0-1,0h0c0,0,0-.9,0-.9-.1,0-.6.4-1.3,1-.2,0-.4,0-.5,0-.4,0-.8-.1-1-.4-.2-.3-.4-.6-.4-1.1s0-.6.2-.8c.1-.2.2-.4.4-.5.1,0,.3-.2.6-.3.6-.2,1.3-.4,2.1-.5,0-.5,0-.8-.3-1.1-.2-.3-.5-.4-1-.4s-.3,0-.5,0c0,0-.2,0-.2.1l-.3.6h-.4c0,0,0-.9,0-.9.3-.2.6-.4.9-.5s.5-.2.6-.3c.2,0,.4,0,.6,0,.4,0,.8,0,1.1.2.3.1.5.3.6.5.1.2.2.4.3.6s0,.4,0,.8,0,.5,0,1c0,.4,0,.7,0,.9,0,.7,0,1.2,0,1.3,0,0,0,.1,0,.1,0,0,.3,0,.6,0h0,0ZM100.7,76.8c-.3,0-.7.2-.9.3-.3.1-.5.2-.6.4-.1.2-.2.3-.2.6s0,.5.2.6c.1.1.3.2.5.2s.4,0,.6-.2c.2-.1.3-.2.4-.4v-1.5s0,0,0,0Z"/>
      <path class="cls-1" d="M103.6,79.8v-.5c.3,0,.5,0,.7,0,0,0,0,0,.1-.1,0,0,0-.2,0-.4v-.5c0-.1,0-.3,0-.6v-.8c0-.4,0-.8,0-1.3,0-.3,0-.4,0-.4s0,0-.1,0c0,0-.3,0-.7,0v-.5c.7-.1,1.2-.2,1.5-.3.2,0,.5-.2.8-.3h.2v1.1l1.1-.9c.1,0,.2,0,.3-.1,0,0,.2,0,.4,0,.5,0,.9,0,1.1.2s.5.4.6.8l1.1-.9c.1,0,.2,0,.3-.1s.2,0,.4,0c.4,0,.7,0,.9.1.2,0,.4.2.6.4s.2.4.3.5c0,.2,0,.5,0,.9s0,.7,0,.9c0,0,0,.1,0,.2v.6c0,.6,0,1.1,0,1.2s0,.3.1.3c0,0,.2,0,.4,0,0,0,.2,0,.3,0v.5c-.6,0-1,0-1.4,0s-.8,0-1,0h0c0-.1,0-1.2,0-1.2,0-.4,0-.8,0-1.2v-.5c0-.7,0-1.2,0-1.4,0-.2-.2-.3-.3-.4-.2-.1-.3-.2-.6-.2s-.5,0-.7.2-.3.3-.3.4c0,.1,0,.3,0,.6v2.1s0,.5,0,.5c0,.2,0,.3,0,.3,0,0,0,0,.1.1,0,0,.1,0,.2,0,.2,0,.4,0,.5,0v.5c-.4,0-.9,0-1.6,0s-1.3,0-1.7,0v-.5c0,0,.2,0,.3,0,.2,0,.3,0,.3,0,0,0,0,0,.1-.2,0,0,0-.3,0-.6v-1.1s0-.9,0-.9c0-.4,0-.7,0-.9s-.2-.3-.3-.4c-.2-.1-.4-.2-.6-.2s-.5,0-.7.2c-.2.1-.3.3-.4.4,0,0,0,.4,0,1v1.1c0,.5,0,1,0,1.3,0,.2,0,.3,0,.3,0,0,0,0,.2,0,0,0,.2,0,.6,0v.5c-.4,0-1,0-1.6,0s-1.2,0-1.7,0h0Z"/>
      <path class="cls-1" d="M114.8,79.8v-.5c.5,0,.7,0,.8-.1,0,0,.1-.1.1-.2,0-.2,0-.8,0-1.7s0-2,0-2.2c0,0,0-.1,0-.2,0,0-.4,0-.8,0v-.5c.6,0,1.1-.1,1.4-.2.3,0,.7-.2,1-.3h.1c0,.7,0,1.3,0,1.9v2.1c0,.7,0,1.1,0,1.3,0,0,0,.1,0,.1.1,0,.4,0,.8.1v.5c-.6,0-1.2,0-1.9,0s-1.1,0-1.5,0h0ZM116.4,70.9c.3,0,.5,0,.7.3s.3.4.3.7,0,.5-.3.7-.4.3-.7.3-.5,0-.7-.3-.3-.4-.3-.7,0-.5.3-.7.4-.3.7-.3Z"/>
    </g>
  </g>
</svg>