<?xml version="1.0" encoding="UTF-8"?>
<svg xmlns="http://www.w3.org/2000/svg" width="340.096" height="130.299" version="1.1" viewBox="0 0 340.096 130.299">
  <defs>
    <style>
      .cls-1 {
        fill: #ea4335;
      }

      .cls-2 {
        fill: #fff;
      }

      .cls-3 {
        fill: #fbbc04;
      }

      .cls-4 {
        fill: #4285f4;
      }

      .cls-5 {
        fill: #34a853;
      }
    </style>
  </defs>
  <!-- Generator: Adobe Illustrator 28.7.1, SVG Export Plug-In . SVG Version: 1.2.0 Build 142)  -->
  <g>
    <g id="Layer_1">
      <path class="cls-2" d="M25.804,12.149h288.489c7.036,0,12.756,5.702,12.756,12.72v80.56c0,7.017-5.718,12.72-12.756,12.72H25.804c-7.036,0-12.756-5.702-12.756-12.72V24.87c0-7.017,5.718-12.72,12.756-12.72Z"/>
      <path d="M298.196,71.196l-4.696,11.959h-.141l-4.899-11.959h-4.43l7.341,16.717-4.195,9.298h4.305l11.317-26.015h-4.602ZM265.012,61.272h-4.101v27.58h4.101v-27.58ZM249.578,61.272h-9.861v27.58h4.132v-10.44h5.745c4.83.165,8.879-3.616,9.044-8.446.001-.039.002-.078.003-.117-.101-4.84-4.106-8.682-8.946-8.581-.039,0-.078.002-.117.003h0ZM249.688,74.561h-5.839v-9.392h5.854c2.593,0,4.696,2.102,4.696,4.696s-2.102,4.696-4.696,4.696h-.016.001ZM275.124,70.601c-3.07-.176-5.952,1.483-7.341,4.226l3.663,1.565c.742-1.356,2.217-2.143,3.757-2.004,2.168-.217,4.101,1.364,4.318,3.532,0,.007.001.014.002.022v.282c-1.312-.71-2.781-1.081-4.273-1.08-3.929,0-7.936,2.16-7.936,6.261,0,3.694,3.209,6.073,6.84,6.073,2.105.134,4.114-.901,5.228-2.692h.157v2.129h4.007v-10.613c0-4.899-3.663-7.623-8.39-7.623l-.031-.078h0ZM274.639,85.722c-1.346,0-3.224-.689-3.224-2.348,0-2.129,2.332-2.943,4.367-2.943,1.312-.035,2.61.284,3.757.924-.313,2.475-2.405,4.34-4.899,4.367h-.001ZM126.218,89.447c-8.106.027-14.726-6.468-14.855-14.573.128-8.105,6.749-14.6,14.855-14.573,3.749-.062,7.366,1.388,10.033,4.023l-2.833,2.802c-1.922-1.883-4.51-2.93-7.2-2.911-5.853,0-10.597,4.744-10.597,10.597s4.744,10.597,10.597,10.597c2.766.114,5.45-.95,7.388-2.927,1.274-1.373,2.042-3.14,2.176-5.009h-9.564v-3.866h13.461c.147.821.215,1.655.203,2.489.135,3.465-1.109,6.842-3.459,9.392-2.684,2.711-6.395,4.151-10.206,3.96h0ZM160.701,80.055c.211,5.131-3.778,9.461-8.909,9.671-5.131.211-9.461-3.778-9.671-8.909-.01-.254-.01-.509,0-.763-.211-5.131,3.778-9.461,8.909-9.671,5.131-.211,9.461,3.778,9.671,8.909.01.254.01.509,0,.763ZM156.631,80.055c.274-2.883-1.841-5.442-4.725-5.716-2.883-.274-5.442,1.842-5.716,4.725-.031.33-.031.662,0,.991-.274,2.883,1.841,5.442,4.725,5.716,2.883.274,5.442-1.841,5.716-4.725.031-.33.031-.662,0-.991ZM181.52,80.055c0,5.126-4.156,9.282-9.282,9.282s-9.282-4.156-9.282-9.282,4.156-9.282,9.282-9.282,9.282,4.156,9.282,9.282ZM177.466,80.055c.274-2.883-1.842-5.442-4.725-5.716-2.883-.274-5.442,1.842-5.716,4.725-.031.33-.031.662,0,.991-.274,2.883,1.841,5.442,4.725,5.716,2.883.274,5.442-1.841,5.716-4.725.031-.33.031-.662,0-.991ZM201.837,71.243v16.858c0,6.919-4.117,9.767-8.969,9.767-3.637.031-6.935-2.131-8.359-5.479l3.553-1.565c.753,1.954,2.603,3.267,4.696,3.334,3.131,0,5.04-1.925,5.04-5.51v-1.346h-.157c-1.242,1.386-3.023,2.168-4.884,2.144-5.187,0-9.392-4.205-9.392-9.392s4.205-9.392,9.392-9.392c1.873-.041,3.674.722,4.946,2.097h.157v-1.565h3.976v.049ZM198.19,80.102c.237-2.921-1.939-5.481-4.86-5.718-.055-.004-.11-.008-.165-.011-3.007.1-5.363,2.618-5.264,5.625.001.035.003.07.004.104-.139,2.979,2.163,5.507,5.142,5.646.039.002.078.003.117.004,2.894-.112,5.149-2.549,5.037-5.443-.003-.069-.007-.139-.012-.208h0ZM209.084,61.303v27.565h-4.132v-27.565h4.132ZM225.363,83.155l3.224,2.129c-1.748,2.609-4.686,4.172-7.826,4.164-5.022.072-9.152-3.941-9.224-8.963-.002-.143,0-.286.004-.428-.412-4.754,3.108-8.942,7.862-9.354,4.007-.347,7.724,2.116,8.965,5.942l.423,1.08-12.522,5.181c.798,1.794,2.608,2.922,4.571,2.849,1.855-.029,3.564-1.011,4.524-2.598v-.002ZM215.486,79.774l8.421-3.475c-.666-1.304-2.045-2.086-3.506-1.988-2.841.124-5.044,2.528-4.92,5.37.001.031.003.062.005.093h0Z"/>
      <path class="cls-1" d="M64.196,62.786l-26.659,27.931c1.084,3.844,5.079,6.08,8.923,4.996.582-.164,1.142-.401,1.665-.705l29.997-17.084-13.926-15.137h0Z"/>
      <path class="cls-3" d="M91.153,58.038l-12.972-7.43-14.601,12.813,14.661,14.462,12.873-7.35c3.451-1.807,4.783-6.068,2.977-9.519-.666-1.272-1.704-2.31-2.977-2.977h.04-.001Z"/>
      <path class="cls-4" d="M37.537,37.715c-.161.596-.241,1.21-.238,1.828v49.346c.002.617.082,1.231.238,1.828l27.573-27.216-27.573-25.785h0Z"/>
      <path class="cls-5" d="M64.395,64.216l13.787-13.608-29.957-17.164c-1.127-.66-2.409-1.01-3.715-1.013-3.241-.006-6.091,2.145-6.973,5.264l26.858,26.52h0Z"/>
      <path d="M118.33,50.861c-4.247,0-6.967-3.099-6.967-7.937,0-4.753,2.709-7.778,6.967-7.778,3.288,0,5.786,1.95,6.355,4.975h-1.992c-.632-2.055-2.224-3.225-4.363-3.225-3.13,0-5.017,2.255-5.017,6.018,0,3.826,1.918,6.197,5.017,6.197,2.698,0,4.553-1.75,4.553-4.3v-.274h-4.29v-1.665h6.187v1.444c0,4.11-2.392,6.545-6.45,6.545Z"/>
      <path d="M136.628,50.608h-9.422v-15.209h9.422v1.707h-7.525v4.88h7.135v1.686h-7.135v5.228h7.525v1.707h0Z"/>
      <path d="M142.973,50.608v-13.501h-4.796v-1.707h11.488v1.707h-4.796v13.501h-1.897.001Z"/>
      <path d="M156.096,50.608v-15.209h1.897v15.209h-1.897Z"/>
      <path d="M160.945,50.608v-15.209h1.844l8.326,11.941h.095v-11.941h1.876v15.209h-1.844l-8.326-11.899h-.095v11.899h-1.876Z"/>
      <path d="M193.893,43.009c0,4.827-2.698,7.852-7.009,7.852s-7.009-3.025-7.009-7.852,2.698-7.863,7.009-7.863,7.009,3.036,7.009,7.863ZM181.825,43.009c0,3.742,1.95,6.103,5.059,6.103s5.059-2.361,5.059-6.103-1.95-6.113-5.059-6.113-5.059,2.361-5.059,6.113Z"/>
      <path d="M196.255,50.608v-15.209h1.844l8.326,11.941h.095v-11.941h1.876v15.209h-1.844l-8.326-11.899h-.095v11.899h-1.876Z"/>
    </g>
  </g>
</svg>