<svg width="393" height="160" viewBox="0 0 393 160" fill="none" xmlns="http://www.w3.org/2000/svg">
<path d="M17.8787 73.8433C14.2805 73.8433 11.1039 73.1687 8.34903 71.8193C5.65035 70.4138 3.40146 68.5303 1.60234 66.169L9.36103 58.7476C10.373 60.2094 11.5818 61.3339 12.9874 62.121C14.4492 62.8519 16.0515 63.2173 17.7944 63.2173C19.5373 63.2173 21.0553 62.8519 22.3484 62.121C23.6977 61.3901 24.7097 60.3218 25.3844 58.9163C26.1153 57.5107 26.4808 55.7959 26.4808 53.7719V13.7135H38.0345V53.0973C38.0345 57.2577 37.1911 60.9122 35.5044 64.0606C33.874 67.1529 31.5408 69.5704 28.5048 71.3133C25.525 73 21.983 73.8433 17.8787 73.8433ZM63.8148 73.8433C60.2166 73.8433 57.0119 73.0843 54.2008 71.5663C51.4459 70.0483 49.2814 67.94 47.7071 65.2413C46.1329 62.5426 45.3458 59.4223 45.3458 55.8803V32.2669H56.4778V55.6273C56.4778 57.3139 56.7589 58.7757 57.3212 60.0126C57.8834 61.1933 58.7267 62.0929 59.8512 62.7113C60.9756 63.3297 62.2968 63.639 63.8148 63.639C66.12 63.639 67.9191 62.9362 69.2122 61.5306C70.5053 60.1251 71.1519 58.1573 71.1519 55.6273V32.2669H82.1996V55.8803C82.1996 59.4785 81.4125 62.627 79.8382 65.3256C78.3202 68.0243 76.1557 70.1327 73.3445 71.6507C70.5896 73.1124 67.4131 73.8433 63.8148 73.8433ZM103.31 73.9277C101.005 73.9277 98.7279 73.6184 96.479 73C94.2863 72.3816 92.2623 71.5382 90.4069 70.47C88.5516 69.3455 86.9493 67.9962 85.5999 66.422L92.178 59.7596C93.5835 61.3339 95.214 62.5145 97.0693 63.3016C98.9246 64.0887 100.977 64.4823 103.226 64.4823C105.025 64.4823 106.374 64.2293 107.274 63.7233C108.229 63.2173 108.707 62.4583 108.707 61.4463C108.707 60.3218 108.201 59.4504 107.189 58.832C106.234 58.2135 104.969 57.7075 103.394 57.3139C101.82 56.8642 100.162 56.3863 98.4186 55.8803C96.732 55.3181 95.1015 54.6153 93.5273 53.7719C91.9531 52.8724 90.6599 51.6636 89.6479 50.1456C88.6922 48.5714 88.2143 46.5474 88.2143 44.0736C88.2143 41.4873 88.8327 39.2384 90.0696 37.3269C91.3627 35.4153 93.19 33.9254 95.5513 32.8572C97.9126 31.789 100.696 31.2549 103.9 31.2549C107.274 31.2549 110.31 31.8452 113.008 33.0259C115.763 34.2065 118.04 35.9775 119.839 38.3389L113.177 45.0012C111.94 43.4832 110.535 42.3869 108.96 41.7122C107.442 41.0376 105.784 40.7002 103.985 40.7002C102.354 40.7002 101.089 40.9532 100.19 41.4592C99.3463 41.9652 98.9246 42.668 98.9246 43.5676C98.9246 44.5796 99.4025 45.3667 100.358 45.9289C101.37 46.4911 102.663 46.9971 104.238 47.4469C105.812 47.8405 107.442 48.3184 109.129 48.8806C110.872 49.3866 112.502 50.1175 114.02 51.0733C115.595 52.029 116.86 53.294 117.815 54.8683C118.827 56.4425 119.333 58.4665 119.333 60.9403C119.333 64.9321 117.9 68.1087 115.032 70.47C112.165 72.7751 108.258 73.9277 103.31 73.9277ZM131.084 73V15.3158H142.132V73H131.084ZM121.554 41.9652V32.2669H151.661V41.9652H121.554ZM185.51 73V14.9785H197.063V73H185.51ZM166.619 23.9178V13.7135H215.954V23.9178H166.619ZM227.912 73.8433C224.201 73.8433 220.856 72.9157 217.876 71.0603C214.896 69.205 212.563 66.675 210.876 63.4703C209.19 60.2656 208.346 56.6674 208.346 52.6756C208.346 48.6276 209.19 45.0012 210.876 41.7966C212.563 38.5919 214.896 36.0619 217.876 34.2065C220.856 32.3512 224.201 31.4235 227.912 31.4235C230.835 31.4235 233.449 32.0139 235.755 33.1945C238.06 34.3752 239.887 36.0338 241.236 38.1702C242.642 40.2504 243.401 42.6118 243.513 45.2542V59.9283C243.401 62.627 242.642 65.0164 241.236 67.0966C239.887 69.1769 238.06 70.8354 235.755 72.0723C233.449 73.253 230.835 73.8433 227.912 73.8433ZM229.936 63.639C233.028 63.639 235.53 62.627 237.441 60.603C239.353 58.5227 240.309 55.8522 240.309 52.5913C240.309 50.4548 239.859 48.5714 238.959 46.9409C238.116 45.2542 236.907 43.9611 235.333 43.0616C233.815 42.1058 232.016 41.6279 229.936 41.6279C227.912 41.6279 226.112 42.1058 224.538 43.0616C223.02 43.9611 221.811 45.2542 220.912 46.9409C220.069 48.5714 219.647 50.4548 219.647 52.5913C219.647 54.7839 220.069 56.7236 220.912 58.4103C221.811 60.0407 223.02 61.3339 224.538 62.2896C226.112 63.1892 227.912 63.639 229.936 63.639ZM239.718 73V62.0366L241.489 52.0853L239.718 42.3026V32.2669H250.682V73H239.718ZM281.37 73.8433C278.446 73.8433 275.804 73.253 273.442 72.0723C271.081 70.8354 269.198 69.1769 267.792 67.0966C266.387 65.0164 265.628 62.627 265.515 59.9283V45.5072C265.628 42.8086 266.387 40.4191 267.792 38.3389C269.254 36.2024 271.137 34.5158 273.442 33.2789C275.804 32.042 278.446 31.4235 281.37 31.4235C285.137 31.4235 288.51 32.3512 291.49 34.2065C294.47 36.0619 296.803 38.5919 298.49 41.7966C300.232 45.0012 301.104 48.6276 301.104 52.6756C301.104 56.6674 300.232 60.2656 298.49 63.4703C296.803 66.675 294.47 69.205 291.49 71.0603C288.51 72.9157 285.137 73.8433 281.37 73.8433ZM258.768 90.0354V32.2669H269.816V42.9772L267.961 52.8443L269.732 62.7113V90.0354H258.768ZM279.43 63.639C281.454 63.639 283.253 63.1892 284.828 62.2896C286.402 61.3339 287.611 60.0407 288.454 58.4103C289.353 56.7236 289.803 54.7839 289.803 52.5913C289.803 50.4548 289.353 48.5714 288.454 46.9409C287.611 45.2542 286.402 43.9611 284.828 43.0616C283.253 42.1058 281.454 41.6279 279.43 41.6279C277.462 41.6279 275.691 42.1058 274.117 43.0616C272.543 43.9611 271.306 45.2542 270.406 46.9409C269.563 48.5714 269.141 50.4548 269.141 52.5913C269.141 54.7839 269.563 56.7236 270.406 58.4103C271.306 60.0407 272.515 61.3339 274.033 62.2896C275.607 63.1892 277.406 63.639 279.43 63.639Z" fill="white"/>
<path d="M206.255 147.217C203.504 147.217 201.024 146.53 198.815 145.154C196.606 143.779 194.876 141.903 193.626 139.528C192.376 137.152 191.75 134.484 191.75 131.525C191.75 128.524 192.376 125.836 193.626 123.461C194.876 121.085 196.606 119.209 198.815 117.834C201.024 116.459 203.504 115.771 206.255 115.771C208.422 115.771 210.36 116.208 212.069 117.084C213.778 117.959 215.132 119.189 216.132 120.772C217.174 122.314 217.737 124.065 217.82 126.024V136.902C217.737 138.902 217.174 140.674 216.132 142.216C215.132 143.758 213.778 144.987 212.069 145.904C210.36 146.78 208.422 147.217 206.255 147.217ZM207.755 139.653C210.047 139.653 211.902 138.902 213.319 137.402C214.736 135.86 215.445 133.88 215.445 131.463C215.445 129.879 215.111 128.483 214.444 127.274C213.819 126.024 212.923 125.065 211.756 124.398C210.631 123.69 209.297 123.336 207.755 123.336C206.255 123.336 204.921 123.69 203.754 124.398C202.629 125.065 201.732 126.024 201.066 127.274C200.44 128.483 200.128 129.879 200.128 131.463C200.128 133.088 200.44 134.526 201.066 135.776C201.732 136.985 202.629 137.944 203.754 138.652C204.921 139.319 206.255 139.653 207.755 139.653ZM215.007 146.592V138.465L216.32 131.088L215.007 123.836V116.396H223.134V146.592H215.007ZM249.447 146.592V129.275C249.447 127.483 248.885 126.024 247.759 124.898C246.634 123.773 245.175 123.21 243.383 123.21C242.216 123.21 241.174 123.461 240.257 123.961C239.34 124.461 238.611 125.169 238.069 126.086C237.569 127.003 237.319 128.066 237.319 129.275L234.131 127.649C234.131 125.274 234.631 123.21 235.631 121.46C236.673 119.668 238.09 118.272 239.882 117.271C241.716 116.271 243.779 115.771 246.071 115.771C248.28 115.771 250.26 116.334 252.011 117.459C253.761 118.542 255.136 119.98 256.137 121.773C257.137 123.523 257.637 125.419 257.637 127.462V146.592H249.447ZM229.129 146.592V116.396H237.319V146.592H229.129ZM275.737 147.217C272.945 147.217 270.444 146.53 268.235 145.154C266.026 143.779 264.276 141.903 262.984 139.528C261.734 137.152 261.108 134.484 261.108 131.525C261.108 128.524 261.734 125.836 262.984 123.461C264.276 121.085 266.006 119.209 268.173 117.834C270.382 116.459 272.903 115.771 275.737 115.771C277.905 115.771 279.843 116.208 281.552 117.084C283.302 117.959 284.698 119.189 285.74 120.772C286.824 122.314 287.407 124.065 287.491 126.024V136.777C287.407 138.736 286.845 140.507 285.803 142.091C284.761 143.675 283.365 144.925 281.614 145.842C279.864 146.759 277.905 147.217 275.737 147.217ZM277.113 139.653C278.655 139.653 279.989 139.319 281.114 138.652C282.281 137.944 283.177 136.985 283.802 135.776C284.469 134.526 284.803 133.088 284.803 131.463C284.803 129.879 284.469 128.483 283.802 127.274C283.177 126.024 282.281 125.065 281.114 124.398C279.989 123.69 278.676 123.336 277.175 123.336C275.633 123.336 274.279 123.69 273.112 124.398C271.986 125.107 271.09 126.065 270.423 127.274C269.798 128.483 269.486 129.879 269.486 131.463C269.486 133.088 269.798 134.526 270.423 135.776C271.09 136.985 272.007 137.944 273.174 138.652C274.341 139.319 275.654 139.653 277.113 139.653ZM292.492 146.592H284.365V138.465L285.678 131.088L284.302 123.836V101.392H292.492V146.592ZM322.076 159.971C318.866 159.971 316.032 159.387 313.573 158.22C311.114 157.095 309.155 155.49 307.697 153.406L312.886 148.217C314.053 149.593 315.345 150.635 316.762 151.343C318.22 152.094 319.971 152.469 322.013 152.469C324.556 152.469 326.556 151.823 328.015 150.531C329.515 149.239 330.266 147.446 330.266 145.154V137.59L331.641 130.963L330.328 124.336V116.396H338.455V145.029C338.455 148.03 337.747 150.635 336.33 152.844C334.954 155.094 333.037 156.845 330.578 158.095C328.119 159.346 325.285 159.971 322.076 159.971ZM321.701 145.779C318.992 145.779 316.553 145.133 314.386 143.841C312.219 142.508 310.51 140.695 309.26 138.402C308.051 136.11 307.447 133.547 307.447 130.713C307.447 127.878 308.051 125.336 309.26 123.085C310.51 120.835 312.219 119.063 314.386 117.771C316.553 116.438 318.992 115.771 321.701 115.771C323.951 115.771 325.931 116.208 327.64 117.084C329.39 117.959 330.766 119.168 331.766 120.71C332.766 122.21 333.308 123.982 333.391 126.024V135.526C333.308 137.527 332.745 139.319 331.703 140.903C330.703 142.445 329.328 143.654 327.577 144.529C325.868 145.363 323.91 145.779 321.701 145.779ZM323.326 138.34C324.826 138.34 326.119 138.027 327.202 137.402C328.327 136.735 329.203 135.839 329.828 134.714C330.453 133.547 330.766 132.234 330.766 130.775C330.766 129.275 330.453 127.962 329.828 126.836C329.203 125.711 328.327 124.836 327.202 124.211C326.119 123.544 324.826 123.21 323.326 123.21C321.826 123.21 320.513 123.544 319.387 124.211C318.262 124.836 317.387 125.732 316.762 126.899C316.137 128.024 315.824 129.316 315.824 130.775C315.824 132.192 316.137 133.484 316.762 134.651C317.387 135.776 318.262 136.673 319.387 137.339C320.513 138.006 321.826 138.34 323.326 138.34ZM358.592 147.217C355.55 147.217 352.799 146.53 350.34 145.154C347.923 143.737 345.985 141.841 344.526 139.465C343.109 137.048 342.4 134.359 342.4 131.4C342.4 128.441 343.109 125.795 344.526 123.461C345.943 121.085 347.881 119.209 350.34 117.834C352.799 116.417 355.529 115.708 358.53 115.708C361.614 115.708 364.365 116.417 366.782 117.834C369.241 119.209 371.179 121.085 372.596 123.461C374.013 125.795 374.722 128.441 374.722 131.4C374.722 134.359 374.013 137.048 372.596 139.465C371.179 141.841 369.241 143.737 366.782 145.154C364.365 146.53 361.635 147.217 358.592 147.217ZM358.53 139.59C360.072 139.59 361.426 139.257 362.593 138.59C363.802 137.881 364.719 136.923 365.344 135.714C366.011 134.464 366.345 133.047 366.345 131.463C366.345 129.879 366.011 128.483 365.344 127.274C364.677 126.065 363.76 125.128 362.593 124.461C361.426 123.752 360.072 123.398 358.53 123.398C357.029 123.398 355.696 123.752 354.529 124.461C353.362 125.128 352.445 126.065 351.778 127.274C351.111 128.483 350.778 129.879 350.778 131.463C350.778 133.047 351.111 134.464 351.778 135.714C352.445 136.923 353.362 137.881 354.529 138.59C355.696 139.257 357.029 139.59 358.53 139.59ZM383.455 147.217C381.954 147.217 380.725 146.717 379.766 145.717C378.808 144.717 378.328 143.487 378.328 142.028C378.328 140.57 378.808 139.34 379.766 138.34C380.725 137.339 381.954 136.839 383.455 136.839C384.914 136.839 386.122 137.339 387.081 138.34C388.039 139.34 388.519 140.57 388.519 142.028C388.519 143.487 388.039 144.717 387.081 145.717C386.122 146.717 384.914 147.217 383.455 147.217Z" fill="#065258"/>
</svg>
